<svg width="211" height="230" viewBox="0 0 211 230" fill="none" xmlns="http://www.w3.org/2000/svg">
<g clip-path="url(#clip0_7_759)">
<path d="M187.46 175.037L187.456 175.14L192.41 230H158.484L151.576 196.307L147.7 230H116.335L116.335 185.603L119.689 165.624V165.62L120.192 162.613H186.474L186.561 163.702L187.46 175.037Z" fill="#2F2E41"/>
<path d="M91.9306 206.839C95.759 207.569 99.751 203.054 100.847 196.753C101.327 193.995 101.172 191.353 100.525 189.191L101.112 185.559L110.963 136.7C110.963 136.7 129.103 98.6976 129.103 92.1001C129.102 85.5027 123.856 82.2673 123.856 82.2673L116.755 82.3369L94.4895 139.29L90.4795 181.377L89.8307 187.151C88.4978 188.934 87.463 191.35 86.9833 194.108C85.8872 200.409 88.1023 206.108 91.9306 206.839V206.839Z" fill="#FFB6B6"/>
<path d="M164.156 58.7252L157.557 42.7424L136.109 46.6301L134.665 65.4343L164.156 58.7252Z" fill="#FFB6B6"/>
<path opacity="0.1" d="M164.156 58.7252L157.557 42.7424L136.109 46.6301L134.665 65.4343L164.156 58.7252Z" fill="black"/>
<path d="M210.764 91.9866C210.764 91.9866 195.503 62.1809 192.616 59.1571C191.331 57.811 189.31 57.7923 187.463 58.1846L166.218 50.5178L159.018 46.2805L158.543 54.3419L134.903 58.7857C135.034 53.8696 135.696 51.9997 135.696 51.9997L127.035 62.6128L110.124 71.2522L110.133 71.33C108.892 71.7836 107.715 72.5599 106.824 73.844C103.524 78.5956 94.4501 136.479 94.4501 136.479L113.836 140.799L116.474 123.46L118.373 139.071L119.816 168.229C119.816 168.229 146.214 191.987 159 183.348C171.787 174.708 187.46 175.14 187.46 175.14L187.851 161.625C188.13 161.159 188.285 160.885 188.285 160.885L187.873 112.944V100.187C191.015 104.772 194.807 108.714 199.215 110.561C213.652 116.609 210.764 91.9866 210.764 91.9866Z" fill="white"/>
<path d="M144.591 49.4422C155.488 49.4422 164.322 40.1903 164.322 28.7775C164.322 17.3648 155.488 8.11292 144.591 8.11292C133.693 8.11292 124.859 17.3648 124.859 28.7775C124.859 40.1903 133.693 49.4422 144.591 49.4422Z" fill="#FFB6B6"/>
<path d="M158.746 34.6176C158.746 34.6176 160.462 28.3284 164.322 28.7776C168.183 29.2268 169.041 25.633 168.183 23.836C167.325 22.0391 165.609 13.0545 165.609 13.0545C165.609 13.0545 166.467 6.76526 161.32 5.8668C156.172 4.96834 154.457 4.06988 153.599 2.27295C152.741 0.476025 139.872 -1.3209 135.583 1.37449C131.294 4.06988 127.862 9.24134 124.859 10.6987C121.857 12.156 119.283 14.8514 120.999 19.3437C122.715 23.836 125.203 32.622 125.203 32.622C125.203 32.622 129.578 31.0237 130.436 33.7191C131.294 36.4145 127.862 32.8207 132.151 25.633C136.441 18.4453 136.441 11.2576 143.304 13.953C150.167 16.6483 157.888 15.7499 157.03 21.1407C156.172 26.5314 158.746 34.6176 158.746 34.6176V34.6176Z" fill="#2F2E41"/>
<path d="M175.822 51.0328C186.921 51.0328 195.919 41.8077 195.919 30.4281C195.919 19.0484 186.921 9.82336 175.822 9.82336C164.722 9.82336 155.724 19.0484 155.724 30.4281C155.724 41.8077 164.722 51.0328 175.822 51.0328Z" fill="#9BC53D"/>
<path d="M182.643 20.035C179.967 25.1374 177.291 30.2399 174.616 35.3424C172.911 32.1869 171.215 29.0258 169.505 25.8728C168.915 24.7838 167.309 25.7633 167.901 26.8549C169.882 30.51 171.844 34.1772 173.825 37.8323C174.164 38.4573 175.094 38.4718 175.43 37.8323C178.369 32.2273 181.308 26.6222 184.247 21.0171C184.823 19.9188 183.219 18.9358 182.643 20.035V20.035Z" fill="white"/>
<path d="M203.566 84.7397L183.542 74.708C183.542 74.708 182.738 67.9936 178.982 65.5987C178.344 64.0037 177.609 62.2514 176.942 60.8629C175.293 57.4293 177.767 50.9498 175.705 50.9498C173.643 50.9498 170.594 57.7643 170.755 59.5892C170.879 60.99 171.985 63.4357 172.213 65.5766C169.698 66.5699 167.67 68.2725 166.336 69.628C165.181 70.8012 164.753 72.5514 165.204 74.1683C166.511 78.8539 169.779 88.5309 174.468 88.5309C180.655 88.5309 182.304 87.235 182.304 87.235C182.304 87.235 195.091 104.082 204.577 105.378C214.064 106.674 203.566 84.7397 203.566 84.7397V84.7397Z" fill="#FFB6B6"/>
</g>
<defs>
<clipPath id="clip0_7_759">
<rect width="211" height="230" fill="white"/>
</clipPath>
</defs>
</svg>
