<svg width="360" height="261" viewBox="0 0 360 261" fill="none" xmlns="http://www.w3.org/2000/svg">
<path d="M360 143.7C360 143.953 359.795 144.159 359.542 144.159H0V143.241H359.542C359.795 143.241 360 143.446 360 143.7V143.7Z" fill="#E6E6E6"/>
<path d="M118.219 32.208C125.723 32.208 131.807 26.1123 131.807 18.5929C131.807 11.0735 125.723 4.97778 118.219 4.97778C110.715 4.97778 104.632 11.0735 104.632 18.5929C104.632 26.1123 110.715 32.208 118.219 32.208Z" fill="#FFB6B6"/>
<path d="M125.419 35.0808L107.535 40.2011L104.98 45.9615L99.2311 73.4832V117.006C99.2311 117.006 92.205 132.367 96.0374 145.808C100.134 160.175 114.561 143.217 125.419 145.153C136.278 147.088 153.524 149.008 153.524 149.008L143.304 102.285L140.749 45.3215L125.419 35.0808Z" fill="white"/>
<path d="M122.044 23.0515L119.282 21.6675C119.282 21.6675 118.591 15.4393 117.21 14.0552C115.829 12.6712 115.829 11.9792 115.829 11.9792L117.901 9.21107C117.901 9.21107 107.541 14.7472 105.469 11.2871C103.398 7.82703 106.16 6.44299 106.16 6.44299L102.707 3.67491C102.707 3.67491 106.851 6.44299 107.541 4.36693C108.232 2.29086 112.376 0.882295 112.376 0.882295C112.376 0.882295 121.424 2.93384 120.698 0.882295C119.972 -1.16925 122.735 0.906818 123.425 1.59884C124.116 2.29086 130.332 9.21107 131.022 8.51905C131.713 7.82703 135.166 9.90309 134.475 10.5951C133.785 11.2871 133.785 11.9792 134.475 12.6712C135.166 13.3632 139.31 20.9754 135.856 23.7435C132.403 26.5116 127.569 29.9717 128.26 32.7398C128.95 35.5079 128.26 23.7435 122.044 23.0515L122.044 23.0515Z" fill="#2F2E41"/>
<path d="M55.0647 57.3308C51.5773 54.3184 50.3016 50.0735 52.2152 47.8499C54.1288 45.6263 58.5064 46.2661 61.9946 49.2801C63.4045 50.4649 64.5107 51.9708 65.2208 53.6718L79.8362 66.6225L73.625 73.3655L59.8762 59.8825C58.092 59.4292 56.4421 58.5542 55.0647 57.3308L55.0647 57.3308Z" fill="#FFB6B6"/>
<path d="M105.133 46.1817L114.76 45.3047L123.203 85.653C124.812 93.3413 119.783 100.847 112.072 102.266L105.133 103.542L60.9067 64.5227L67.3682 53.7293L99.983 74.2299L105.133 46.1817V46.1817Z" fill="white"/>
<path d="M83.6399 225.616C83.6399 225.616 76.004 239.826 76.5494 239.279C77.0948 238.733 86.367 242.012 86.367 242.012L91.8212 227.802L83.6399 225.616Z" fill="#FFB6B6"/>
<path d="M72.3693 126.149C72.3693 126.149 68.4605 141.805 68.8549 141.141C69.2492 140.477 79.0417 141.367 79.0417 141.367L80.836 126.249L72.3693 126.149H72.3693Z" fill="#FFB6B6"/>
<path d="M140.364 123.516C123.107 125.946 107.521 123.828 94.8209 113.85C94.8209 113.85 85.5487 145.002 102.457 148.281C119.365 151.56 138.182 145.924 140.364 140.459C142.545 134.994 140.364 123.516 140.364 123.516Z" fill="#2F2E41"/>
<path d="M108.184 133.354L89.3666 177.794L80.6399 229.168L92.0937 231.901L112.581 184.626L140.364 139.366L108.184 133.354Z" fill="#2F2E41"/>
<path d="M105.729 120.681C105.729 120.681 101.366 86.7963 93.1846 84.6101C89.1961 83.5444 85.467 83.6476 82.6921 84.0334C79.8954 84.4222 77.6659 86.5633 77.1769 89.3498L69.7422 131.714H80.2555L83.6397 120.237L92.6391 135.984L105.729 120.681V120.681Z" fill="#2F2E41"/>
<path d="M79.0037 137.077L68.6085 135.984L67.0044 141.996C67.0044 141.996 50.0963 157.299 58.8231 158.392C67.5498 159.485 75.7311 153.473 75.7311 153.473L87.7358 146.573C87.7358 146.573 83.0943 134.174 79.8218 134.174C76.5493 134.174 79.0037 137.077 79.0037 137.077V137.077Z" fill="#2F2E41"/>
<path d="M84.4578 239.552L74.0626 238.459L72.4585 244.471C72.4585 244.471 55.5504 259.774 64.2772 260.867C73.0039 261.96 81.1852 255.948 81.1852 255.948L93.1899 249.048C93.1899 249.048 92.3664 236.102 89.0939 236.102C85.8213 236.102 84.4578 239.552 84.4578 239.552Z" fill="#2F2E41"/>
<path d="M137.092 156.816C135.839 161.123 132.605 163.967 129.869 163.167C127.134 162.367 125.933 158.228 127.187 153.919C127.665 152.191 128.549 150.602 129.764 149.287L135.305 131.103L143.765 133.89L137.405 151.52C137.724 153.285 137.617 155.101 137.092 156.816V156.816Z" fill="#FFB6B6"/>
<path d="M142.948 45.4006L138.537 44.1539V44.1539C134.377 52.4472 132.588 61.7321 133.369 70.981L135.546 96.7884L128.362 142.149L142.442 145.8L153.539 88.8737L142.948 45.4007V45.4006Z" fill="white"/>
<path d="M57.066 116.322C56.8729 115.729 55.4087 115.99 55.2681 115.46C55.128 114.932 56.533 114.49 57.6106 113.002C57.8049 112.734 59.0294 111.043 58.5598 110.332C57.6696 108.984 51.4758 112.341 49.989 110.457C49.6627 110.044 49.5285 109.334 48.5565 108.013C48.1698 107.488 47.9217 107.234 47.6253 107.241C47.2047 107.252 47.0542 107.779 46.3932 108.734C45.4018 110.167 45.0441 109.987 44.391 111.16C43.9062 112.032 43.8487 112.588 43.4991 112.621C43.0044 112.668 42.8 111.583 42.1954 111.541C41.5786 111.498 40.9613 112.57 40.6553 113.407C40.081 114.978 40.4366 116.179 40.5155 117.376C40.6011 118.677 40.4 120.581 38.9895 123.025L25.6858 144.264C28.5429 139.935 36.6531 128.128 39.9207 123.797C40.864 122.547 41.8777 121.291 43.4379 121.055C44.9401 120.828 46.7678 121.572 49.3189 121.529C49.6168 121.524 50.446 121.499 50.6477 121.059C50.8144 120.695 50.4004 120.378 50.551 120.036C50.753 119.577 51.6619 119.774 52.9006 119.469C53.774 119.254 54.3674 118.899 54.8776 118.593C55.0315 118.501 57.3233 117.11 57.0661 116.322H57.066L57.066 116.322Z" fill="#F2F2F2"/>
<path d="M22.2211 121.281C21.8752 121.205 21.5805 122 21.2804 121.916C20.9814 121.833 21.17 121.014 20.7522 120.055C20.6768 119.882 20.202 118.792 19.7182 118.818C18.8011 118.867 18.6583 122.882 17.3066 123.069C17.01 123.11 16.6236 122.972 15.6962 123.068C15.3272 123.107 15.1314 123.156 15.0495 123.304C14.9334 123.514 15.1482 123.74 15.4253 124.341C15.8408 125.241 15.6495 125.365 16.0359 126.025C16.3227 126.515 16.5788 126.704 16.494 126.885C16.374 127.142 15.7837 126.93 15.5887 127.215C15.3897 127.506 15.7365 128.119 16.0584 128.511C16.6623 129.246 17.3532 129.418 17.9622 129.725C18.6241 130.058 19.4987 130.706 20.2888 132.105L26.8534 144.776C25.557 142.122 22.1139 134.726 20.9354 131.87C20.5952 131.045 20.2728 130.184 20.6073 129.349C20.9294 128.544 21.8215 127.86 22.5363 126.593C22.6198 126.445 22.8469 126.03 22.6895 125.804C22.5592 125.617 22.2847 125.729 22.1606 125.557C21.994 125.325 22.3527 124.935 22.5608 124.237C22.7075 123.746 22.7047 123.352 22.7023 123.012C22.7016 122.91 22.6815 121.382 22.2211 121.281V121.281L22.2211 121.281Z" fill="#F2F2F2"/>
<path d="M28.7703 124.372L28.9766 122.463L29.1032 122.343C29.6887 121.789 30.055 121.201 30.1924 120.597C30.2143 120.501 30.2312 120.403 30.2485 120.304C30.317 119.912 30.4021 119.424 30.7787 118.917C30.9895 118.635 31.547 117.997 32.122 118.22C32.2772 118.278 32.3819 118.379 32.4547 118.486C32.473 118.467 32.4917 118.448 32.5117 118.428C32.7601 118.187 32.9338 118.098 33.1012 118.013C33.2298 117.947 33.3626 117.879 33.5874 117.699C33.686 117.62 33.7649 117.549 33.8314 117.49C34.0332 117.309 34.2913 117.098 34.6448 117.181C35.0195 117.284 35.148 117.642 35.2332 117.879C35.3854 118.302 35.4323 118.593 35.4633 118.786C35.4745 118.856 35.4875 118.936 35.4973 118.962C35.5793 119.169 36.6089 119.222 36.9963 119.245C37.8671 119.292 38.6206 119.333 38.8018 119.931C38.9318 120.358 38.6608 120.824 37.9731 121.353C37.7589 121.518 37.5448 121.631 37.3582 121.716C37.4729 121.825 37.5644 121.973 37.57 122.174C37.5826 122.651 37.0946 123.016 36.1198 123.263C35.8775 123.325 35.5517 123.407 35.1253 123.386C34.9244 123.376 34.7485 123.345 34.5986 123.317C34.5762 123.402 34.5352 123.491 34.4613 123.576C34.2443 123.825 33.8939 123.888 33.4182 123.748C32.8931 123.601 32.4783 123.402 32.1122 123.226C31.7924 123.074 31.5167 122.943 31.2853 122.908C30.855 122.847 30.4537 123.113 29.9735 123.468L28.7703 124.372H28.7703L28.7703 124.372Z" fill="#F2F2F2"/>
<path d="M32.2044 113.499L30.3092 113.783L30.1614 113.691C29.4776 113.264 28.8176 113.058 28.1991 113.078C28.1007 113.082 28.0026 113.09 27.9026 113.098C27.5063 113.131 27.0137 113.173 26.429 112.936C26.1029 112.804 25.3455 112.425 25.4148 111.811C25.4317 111.646 25.5025 111.519 25.5872 111.421C25.5646 111.408 25.542 111.395 25.5176 111.38C25.2211 111.201 25.0915 111.055 24.9667 110.914C24.8707 110.806 24.7718 110.695 24.5409 110.523C24.4397 110.447 24.351 110.389 24.2765 110.339C24.051 110.19 23.7815 109.993 23.7727 109.629C23.7767 109.24 24.0899 109.025 24.2972 108.882C24.6669 108.627 24.9357 108.508 25.1141 108.429C25.1793 108.4 25.2526 108.367 25.275 108.351C25.4542 108.219 25.2447 107.208 25.1681 106.827C24.9929 105.971 24.8413 105.23 25.3721 104.903C25.7518 104.668 26.2706 104.813 26.9555 105.345C27.1687 105.511 27.3326 105.69 27.4618 105.849C27.5377 105.71 27.6572 105.584 27.8502 105.528C28.3072 105.394 28.7841 105.775 29.2694 106.657C29.3907 106.876 29.5525 107.171 29.6406 107.59C29.682 107.787 29.6968 107.965 29.7071 108.118C29.7954 108.118 29.8917 108.135 29.992 108.185C30.2873 108.332 30.4373 108.656 30.4225 109.153C30.4142 109.699 30.3269 110.151 30.2506 110.551C30.1843 110.899 30.1282 111.2 30.1525 111.433C30.2035 111.865 30.5622 112.187 31.0261 112.562L32.2044 113.499H32.2044L32.2044 113.499Z" fill="#F2F2F2"/>
<path d="M32.4597 107.796L32.6661 105.888L32.7926 105.768C33.3781 105.213 33.7444 104.626 33.8818 104.021C33.9037 103.925 33.9206 103.828 33.938 103.729C34.0065 103.336 34.0916 102.848 34.4681 102.341C34.6789 102.059 35.2364 101.421 35.8114 101.644C35.9666 101.702 36.0714 101.803 36.1442 101.91C36.1624 101.891 36.1811 101.873 36.2011 101.853C36.4495 101.611 36.6233 101.522 36.7907 101.437C36.9193 101.371 37.0521 101.304 37.2768 101.124C37.3754 101.045 37.4544 100.973 37.5209 100.914C37.7226 100.733 37.9807 100.522 38.3342 100.606C38.7089 100.708 38.8374 101.066 38.9227 101.303C39.0749 101.726 39.1218 102.017 39.1528 102.21C39.164 102.281 39.1769 102.36 39.1867 102.386C39.2687 102.593 40.2983 102.647 40.6857 102.669C41.5565 102.716 42.3101 102.757 42.4913 103.355C42.6213 103.782 42.3503 104.248 41.6626 104.777C41.4484 104.942 41.2342 105.055 41.0476 105.14C41.1624 105.249 41.2538 105.397 41.2594 105.598C41.272 106.075 40.7841 106.441 39.8092 106.687C39.567 106.749 39.2411 106.831 38.8147 106.81C38.6139 106.801 38.438 106.77 38.288 106.741C38.2656 106.827 38.2246 106.916 38.1507 107C37.9337 107.249 37.5833 107.312 37.1077 107.172C36.5826 107.025 36.1677 106.826 35.8016 106.651C35.4818 106.498 35.2061 106.367 34.9748 106.332C34.5445 106.271 34.1432 106.538 33.663 106.892L32.4597 107.796H32.4597L32.4597 107.796Z" fill="#F2F2F2"/>
<path d="M26.3146 144.373L25.9796 144.042L25.9856 143.57L25.9796 144.042L25.5139 143.992C25.5161 143.948 25.513 143.846 25.5096 143.685C25.4917 142.807 25.4361 140.135 25.8075 136.028C26.0668 133.161 26.5002 130.251 27.0956 127.378C27.6919 124.5 28.3109 122.358 28.808 120.637C29.1832 119.339 29.5618 118.107 29.9315 116.908C30.918 113.703 31.8494 110.676 32.4262 107.224C32.5554 106.453 32.8235 104.848 32.2746 102.955C31.9561 101.856 31.4109 100.823 30.6534 99.8831L31.3866 99.2898C32.2224 100.328 32.8253 101.473 33.179 102.692C33.7876 104.792 33.4955 106.54 33.3551 107.38C32.768 110.894 31.8273 113.95 30.8311 117.185C30.4634 118.38 30.0859 119.606 29.7124 120.899C29.2198 122.605 28.6064 124.728 28.0178 127.569C27.4291 130.408 27.0013 133.282 26.7449 136.113C26.3784 140.168 26.4334 142.801 26.4514 143.666C26.4608 144.127 26.4628 144.224 26.3147 144.373V144.373L26.3146 144.373Z" fill="#F2F2F2"/>
<path d="M28.6423 100.97C28.6046 100.961 28.5666 100.952 28.5286 100.94C27.7555 100.723 27.1353 100.092 26.6847 99.064C26.4739 98.5808 26.4241 98.0721 26.3249 97.0578C26.3093 96.9014 26.2405 96.11 26.3251 95.0612C26.3801 94.3758 26.4536 94.1006 26.6397 93.8845C26.8464 93.6437 27.1249 93.5058 27.4192 93.4365C27.4271 93.3458 27.4568 93.2571 27.5155 93.173C27.7576 92.824 28.1628 92.9674 28.3827 93.042C28.4935 93.0819 28.6315 93.1326 28.7868 93.1588C29.0308 93.201 29.1765 93.1581 29.3971 93.0941C29.6081 93.0327 29.8705 92.9563 30.2332 92.9628C30.9489 92.9727 31.4787 93.295 31.6534 93.4011C32.5735 93.955 32.8911 94.8388 33.2588 95.8622C33.3318 96.0673 33.5742 96.8088 33.6307 97.7635C33.6714 98.4523 33.5814 98.7343 33.4781 98.9359C33.2671 99.3504 32.9441 99.5425 32.1423 99.9467C31.3047 100.37 30.8845 100.582 30.5399 100.691C29.7381 100.943 29.2346 101.102 28.6423 100.969V100.97V100.97Z" fill="#F2F2F2"/>
<path d="M243.658 21.0653C243.658 21.0653 248.859 24.122 247.153 27.1449C245.448 30.1677 243.069 34.2852 244.683 35.582C246.296 36.8787 248.96 42.5962 248.96 42.5962C248.96 42.5962 260.329 41.005 259.262 49.8547C258.195 58.7045 252.853 59.911 257.431 63.8042C262.009 67.6975 252.673 72.3537 252.673 72.3537C252.673 72.3537 246.228 70.3411 244.758 64.1522C243.287 57.9632 246.069 68.8844 245.136 69.6675C244.203 70.4506 240.581 75.6122 238.018 68.7495C235.455 61.8869 237.993 59.2261 234.607 55.1759C231.22 51.1256 228.918 44.5746 229.019 43.4294C229.12 42.2843 225.145 31.8345 231.263 27.7592C237.381 23.6839 243.658 21.0653 243.658 21.0653V21.0653Z" fill="#2F2E41"/>
<path d="M294.893 117.086C297.913 119.59 301.65 120.059 303.241 118.133C304.831 116.206 303.672 112.615 300.65 110.11C299.457 109.093 298.038 108.377 296.512 108.022L283.583 97.5724L278.818 103.757L292.07 113.402C292.704 114.838 293.672 116.101 294.893 117.086V117.086Z" fill="#FFB6B6"/>
<path d="M256.142 60.0956C256.142 60.0956 245.995 53.296 242.673 56.6302C239.35 59.9643 240.143 68.2921 240.143 68.2921L266.752 99.3658L287.852 112.805L293.509 103.928L275.771 88.0668L256.142 60.0956V60.0956Z" fill="#FDE74C"/>
<path d="M241.269 45.3666L244.95 58.4791H224.744L231.398 42.3225L241.269 45.3666Z" fill="#FFB6B6"/>
<path opacity="0.1" d="M241.269 45.3666L244.95 58.4791H224.744L231.398 42.3225L241.269 45.3666Z" fill="black"/>
<path d="M197.203 142.18C196.942 146.1 198.749 149.411 201.238 149.577C203.727 149.743 205.956 146.701 206.216 142.78C206.342 141.215 206.092 139.643 205.486 138.195L206.382 121.574L198.59 121.319L198.534 137.731C197.742 139.087 197.285 140.612 197.203 142.18V142.18Z" fill="#FFB6B6"/>
<path d="M220.667 77.3515C220.667 77.3515 220.237 65.1277 215.594 64.3773C210.952 63.6269 204.675 69.1429 204.675 69.1429L195.086 108.944L196.549 133.954L207.044 133.36L209.507 109.665L220.667 77.3515V77.3515Z" fill="#FDE74C"/>
<path d="M265.676 223.43C265.676 223.43 273.312 237.64 272.767 237.093C272.221 236.546 262.949 239.826 262.949 239.826L257.495 225.616L265.676 223.43Z" fill="#FFB6B6"/>
<path d="M276.947 123.963C276.947 123.963 280.855 139.619 280.461 138.955C280.067 138.291 270.274 139.181 270.274 139.181L268.48 124.063L276.947 123.963V123.963Z" fill="#FFB6B6"/>
<path d="M246.586 54.1068H227.522L206.771 68.3167L200.771 118.051L204.044 127.889L210.043 139.366C210.043 139.366 204.044 114.225 218.77 124.063C233.496 133.901 234.587 135.54 234.587 135.54L254.222 125.703L261.585 84.9859L256.131 62.5781L246.586 54.1068Z" fill="#FDE74C"/>
<path d="M208.953 121.33C226.209 123.759 241.795 121.642 254.495 111.664C254.495 111.664 263.767 142.816 246.859 146.095C229.951 149.374 211.134 143.738 208.953 138.273C206.771 132.808 208.953 121.33 208.953 121.33Z" fill="#2F2E41"/>
<path d="M241.132 131.168L259.949 175.608L268.676 226.982L257.222 229.715L236.735 182.44L208.952 137.18L241.132 131.168Z" fill="#2F2E41"/>
<path d="M243.587 118.495C243.587 118.495 247.95 84.6102 256.131 82.4241C260.12 81.3584 263.849 81.4616 266.624 81.8474C269.421 82.2362 271.65 84.3773 272.139 87.1638L279.574 129.528H269.06L265.676 118.051L256.677 133.798L243.587 118.495V118.495Z" fill="#2F2E41"/>
<path d="M270.312 134.891L280.708 133.798L282.312 139.81C282.312 139.81 299.22 155.113 290.493 156.206C281.766 157.299 273.585 151.287 273.585 151.287L261.58 144.387C261.58 144.387 266.222 131.988 269.494 131.988C272.767 131.988 270.312 134.891 270.312 134.891V134.891Z" fill="#2F2E41"/>
<path d="M264.858 237.366L275.253 236.273L276.857 242.285C276.857 242.285 293.765 257.588 285.039 258.681C276.312 259.774 268.131 253.762 268.131 253.762L256.126 246.862C256.126 246.862 256.949 233.916 260.222 233.916C263.495 233.916 264.858 237.366 264.858 237.366Z" fill="#2F2E41"/>
<path d="M236.468 48.216C243.189 48.216 248.637 42.7568 248.637 36.0225C248.637 29.2882 243.189 23.829 236.468 23.829C229.747 23.829 224.299 29.2882 224.299 36.0225C224.299 42.7568 229.747 48.216 236.468 48.216Z" fill="#FFB6B6"/>
<path d="M241.133 22.4064C241.133 22.4064 243.161 28.0967 239.916 29.3161C236.671 30.5354 232.209 32.1612 232.615 34.1935C233.02 36.2257 231.398 42.3225 231.398 42.3225C231.398 42.3225 241.133 48.4192 234.643 54.516C228.153 60.6127 223.285 58.1004 224.299 64.0307C225.313 69.9611 215.173 67.5224 215.173 67.5224C215.173 67.5224 211.522 61.8321 214.362 56.1418C217.201 50.4515 212.333 60.6127 211.117 60.6127C209.9 60.6127 203.815 62.2385 206.249 55.3289C208.683 48.4192 212.333 48.0128 212.333 42.7289C212.333 37.4451 214.767 30.9419 215.578 30.129C216.39 29.3161 220.04 18.7484 227.341 19.5613C234.643 20.3742 241.133 22.4064 241.133 22.4064V22.4064Z" fill="#2F2E41"/>
<path d="M134.775 223.43C134.775 223.43 127.139 237.64 127.685 237.093C128.23 236.546 137.502 239.826 137.502 239.826L142.956 225.616L134.775 223.43V223.43Z" fill="#A0616A"/>
<path d="M191.499 121.33C174.243 123.759 158.656 121.642 145.956 111.664C145.956 111.664 136.684 142.816 153.592 146.095C170.5 149.374 189.317 143.738 191.499 138.273C193.681 132.808 191.499 121.33 191.499 121.33Z" fill="#2F2E41"/>
<path d="M159.319 131.168L140.502 175.608L131.775 226.982L143.229 229.715L163.717 182.44L191.499 137.18L159.319 131.168Z" fill="#2F2E41"/>
<path d="M135.593 237.366L125.198 236.273L123.594 242.285C123.594 242.285 106.686 257.588 115.413 258.681C124.139 259.774 132.321 253.762 132.321 253.762L144.325 246.862C144.325 246.862 143.502 233.916 140.229 233.916C136.957 233.916 135.593 237.366 135.593 237.366V237.366Z" fill="#2F2E41"/>
<path d="M152.017 215.953C152.017 215.953 149.128 231.831 149.479 231.142C149.829 230.454 159.659 230.707 159.659 230.707L160.472 215.504L152.017 215.953Z" fill="#A0616A"/>
<path d="M146.958 120.605L142.741 168.694L150.257 220.26L161.994 219.319L166.927 168.016L179.419 116.375L146.958 120.605Z" fill="#2F2E41"/>
<path d="M157.086 228.957L146.861 231.131L147.186 237.346C147.186 237.346 135.814 257.129 144.452 255.471C153.089 253.813 159.021 245.565 159.021 245.565L168.315 235.29C168.315 235.29 163.546 223.231 160.434 224.243C157.321 225.254 157.086 228.957 157.086 228.957V228.957Z" fill="#2F2E41"/>
<path d="M156.794 21.0653C156.794 21.0653 151.592 24.122 153.298 27.1449C155.004 30.1677 157.382 34.2852 155.769 35.582C154.155 36.8787 151.492 42.5962 151.492 42.5962C151.492 42.5962 140.122 41.005 141.189 49.8547C142.257 58.7045 147.598 59.911 143.02 63.8042C138.442 67.6975 147.778 72.3537 147.778 72.3537C147.778 72.3537 154.223 70.3411 155.694 64.1522C157.164 57.9632 154.383 68.8844 155.316 69.6675C156.248 70.4506 159.87 75.6122 162.433 68.7495C164.996 61.8869 162.458 59.2261 165.844 55.1759C169.231 51.1256 171.533 44.5746 171.432 43.4294C171.331 42.2843 175.306 31.8345 169.188 27.7592C163.071 23.6839 156.794 21.0653 156.794 21.0653V21.0653Z" fill="#2F2E41"/>
<path d="M159.183 45.3666L155.501 58.4791H175.708L169.054 42.3225L159.183 45.3666Z" fill="#A0616A"/>
<path opacity="0.1" d="M159.183 45.3666L155.501 58.4791H175.708L169.054 42.3225L159.183 45.3666Z" fill="black"/>
<path d="M203.249 142.18C203.51 146.1 201.703 149.411 199.214 149.577C196.724 149.743 194.496 146.701 194.235 142.78C194.11 141.215 194.36 139.643 194.965 138.195L194.069 121.574L201.862 121.319L201.918 137.731C202.71 139.087 203.166 140.612 203.249 142.18H203.249Z" fill="#A0616A"/>
<path d="M179.784 77.3515C179.784 77.3515 180.215 65.1277 184.857 64.3773C189.5 63.6269 195.776 69.1429 195.776 69.1429L205.365 108.944L203.902 133.954L193.407 133.36L190.944 109.665L179.784 77.3515V77.3515Z" fill="#9BC53D"/>
<path d="M153.865 54.1068H172.929L193.681 68.3167L199.68 118.051L196.408 127.889L190.408 139.366C190.408 139.366 196.408 114.225 181.681 124.063C181.534 124.161 181.388 124.259 181.244 124.356C171.764 130.7 159.256 130.049 150.481 122.757L143.502 116.958L147.32 97.8295L144.32 62.5781L153.865 54.1068V54.1068Z" fill="#9BC53D"/>
<path d="M106.162 116.373C103.104 118.831 99.36 119.243 97.7991 117.293C96.2382 115.343 97.4517 111.77 100.511 109.311C101.719 108.312 103.149 107.618 104.68 107.286L117.767 97.0344L122.437 103.291L109.04 112.733C108.385 114.159 107.398 115.407 106.162 116.373V116.373Z" fill="#A0616A"/>
<path d="M145.773 59.9799C145.773 59.9799 156.021 53.3357 159.293 56.72C162.565 60.1044 161.645 68.4191 161.645 68.4191L134.568 99.084L113.267 112.2L107.745 103.238L125.722 87.6489L145.773 59.9799V59.9799Z" fill="#9BC53D"/>
<path d="M163.983 48.216C170.704 48.216 176.152 42.7568 176.152 36.0225C176.152 29.2882 170.704 23.829 163.983 23.829C157.263 23.829 151.815 29.2882 151.815 36.0225C151.815 42.7568 157.263 48.216 163.983 48.216Z" fill="#A0616A"/>
<path d="M157.926 27.8493C157.926 27.8493 156.133 21.8613 159.121 21.8613C162.109 21.8613 174.06 22.4601 175.255 23.6577C176.451 24.8553 190.593 36.8746 182.227 46.4553C173.861 56.0361 182.227 60.6652 182.227 60.6652C182.227 60.6652 188.402 75.1542 182.426 76.3518C176.451 77.5494 151.938 70.7015 157.926 59.5855C164.423 47.5222 167.446 28.4823 157.926 27.8493L157.926 27.8493Z" fill="#2F2E41"/>
<path d="M357.048 116.868C356.855 116.276 355.391 116.537 355.25 116.007C355.11 115.479 356.515 115.036 357.592 113.549C357.787 113.28 359.011 111.59 358.542 110.878C357.652 109.531 351.458 112.888 349.971 111.004C349.645 110.59 349.51 109.881 348.538 108.56C348.152 108.034 347.904 107.78 347.607 107.788C347.187 107.799 347.036 108.326 346.375 109.281C345.384 110.713 345.026 110.533 344.373 111.707C343.888 112.578 343.831 113.135 343.481 113.168C342.986 113.214 342.782 112.129 342.177 112.087C341.56 112.044 340.943 113.116 340.637 113.953C340.063 115.525 340.419 116.726 340.497 117.923C340.583 119.224 340.382 121.128 338.971 123.572L325.668 144.811C328.525 140.481 336.635 128.674 339.903 124.343C340.846 123.093 341.86 121.838 343.42 121.602C344.922 121.374 346.75 122.119 349.301 122.075C349.599 122.07 350.428 122.046 350.63 121.605C350.796 121.241 350.382 120.925 350.533 120.583C350.735 120.123 351.644 120.32 352.883 120.016C353.756 119.801 354.349 119.445 354.86 119.14C355.013 119.048 357.305 117.657 357.048 116.868V116.868V116.868Z" fill="#F2F2F2"/>
<path d="M322.203 121.827C321.857 121.751 321.562 122.547 321.262 122.463C320.963 122.379 321.152 121.561 320.734 120.602C320.659 120.429 320.184 119.339 319.7 119.364C318.783 119.413 318.64 123.428 317.289 123.616C316.992 123.657 316.606 123.518 315.678 123.615C315.309 123.654 315.113 123.702 315.031 123.85C314.915 124.06 315.13 124.286 315.407 124.887C315.823 125.788 315.631 125.912 316.018 126.572C316.305 127.062 316.561 127.25 316.476 127.432C316.356 127.688 315.766 127.476 315.571 127.761C315.372 128.052 315.718 128.665 316.04 129.057C316.644 129.793 317.335 129.965 317.944 130.271C318.606 130.604 319.481 131.253 320.271 132.652L326.835 145.323C325.539 142.668 322.096 135.273 320.917 132.416C320.577 131.592 320.255 130.731 320.589 129.895C320.911 129.091 321.803 128.407 322.518 127.14C322.602 126.992 322.829 126.577 322.671 126.351C322.541 126.164 322.267 126.276 322.143 126.103C321.976 125.871 322.335 125.481 322.543 124.784C322.689 124.292 322.687 123.898 322.684 123.559C322.684 123.457 322.663 121.928 322.203 121.827V121.827V121.827Z" fill="#F2F2F2"/>
<path d="M328.752 124.919L328.959 123.01L329.085 122.89C329.671 122.335 330.037 121.748 330.174 121.143C330.196 121.047 330.213 120.95 330.23 120.851C330.299 120.458 330.384 119.97 330.761 119.464C330.971 119.181 331.529 118.543 332.104 118.766C332.259 118.824 332.364 118.925 332.437 119.032C332.455 119.013 332.474 118.995 332.494 118.975C332.742 118.733 332.916 118.644 333.083 118.559C333.212 118.493 333.345 118.426 333.569 118.246C333.668 118.167 333.747 118.096 333.813 118.036C334.015 117.856 334.273 117.644 334.627 117.728C335.001 117.83 335.13 118.189 335.215 118.426C335.367 118.849 335.414 119.14 335.445 119.333C335.456 119.403 335.469 119.482 335.479 119.508C335.561 119.715 336.591 119.769 336.978 119.791C337.849 119.839 338.603 119.88 338.784 120.477C338.914 120.904 338.643 121.371 337.955 121.9C337.741 122.064 337.527 122.178 337.34 122.262C337.455 122.371 337.546 122.519 337.552 122.72C337.565 123.197 337.077 123.563 336.102 123.81C335.859 123.871 335.534 123.953 335.107 123.933C334.906 123.923 334.73 123.892 334.58 123.863C334.558 123.949 334.517 124.038 334.443 124.122C334.226 124.371 333.876 124.435 333.4 124.294C332.875 124.148 332.46 123.948 332.094 123.773C331.774 123.62 331.499 123.49 331.267 123.454C330.837 123.394 330.436 123.66 329.955 124.014L328.752 124.919H328.752V124.919Z" fill="#F2F2F2"/>
<path d="M332.186 114.046L330.291 114.33L330.143 114.238C329.46 113.811 328.8 113.605 328.181 113.625C328.083 113.628 327.985 113.636 327.885 113.645C327.488 113.678 326.996 113.719 326.411 113.483C326.085 113.35 325.327 112.972 325.397 112.358C325.414 112.192 325.484 112.065 325.569 111.968C325.547 111.955 325.524 111.941 325.5 111.927C325.203 111.748 325.073 111.602 324.949 111.461C324.853 111.353 324.754 111.241 324.523 111.069C324.422 110.994 324.333 110.935 324.258 110.886C324.033 110.736 323.763 110.54 323.755 110.176C323.759 109.786 324.072 109.571 324.279 109.428C324.649 109.174 324.918 109.054 325.096 108.975C325.161 108.947 325.235 108.914 325.257 108.898C325.436 108.766 325.227 107.754 325.15 107.373C324.975 106.517 324.823 105.776 325.354 105.449C325.734 105.215 326.252 105.359 326.937 105.892C327.151 106.057 327.315 106.236 327.444 106.396C327.52 106.257 327.639 106.131 327.832 106.074C328.289 105.941 328.766 106.321 329.251 107.203C329.373 107.423 329.534 107.718 329.623 108.136C329.664 108.333 329.679 108.512 329.689 108.664C329.777 108.664 329.874 108.681 329.974 108.732C330.269 108.879 330.419 109.202 330.404 109.699C330.396 110.245 330.309 110.698 330.233 111.097C330.166 111.446 330.11 111.746 330.134 111.98C330.185 112.412 330.544 112.733 331.008 113.109L332.186 114.046H332.186V114.046Z" fill="#F2F2F2"/>
<path d="M332.442 108.343L332.648 106.434L332.775 106.314C333.36 105.76 333.727 105.172 333.864 104.567C333.886 104.471 333.903 104.374 333.92 104.275C333.989 103.883 334.074 103.395 334.45 102.888C334.661 102.606 335.219 101.967 335.794 102.19C335.949 102.249 336.054 102.349 336.126 102.456C336.145 102.438 336.163 102.419 336.183 102.399C336.432 102.157 336.605 102.069 336.773 101.983C336.901 101.918 337.034 101.85 337.259 101.67C337.358 101.591 337.437 101.52 337.503 101.46C337.705 101.28 337.963 101.068 338.316 101.152C338.691 101.255 338.82 101.613 338.905 101.85C339.057 102.273 339.104 102.564 339.135 102.757C339.146 102.827 339.159 102.907 339.169 102.932C339.251 103.139 340.28 103.193 340.668 103.215C341.539 103.263 342.292 103.304 342.473 103.901C342.603 104.329 342.332 104.795 341.645 105.324C341.431 105.488 341.216 105.602 341.03 105.687C341.145 105.795 341.236 105.943 341.242 106.145C341.254 106.621 340.766 106.987 339.791 107.234C339.549 107.296 339.223 107.378 338.797 107.357C338.596 107.347 338.42 107.316 338.27 107.287C338.248 107.373 338.207 107.462 338.133 107.547C337.916 107.795 337.565 107.859 337.09 107.718C336.565 107.572 336.15 107.372 335.784 107.197C335.464 107.044 335.188 106.914 334.957 106.878C334.527 106.818 334.125 107.084 333.645 107.438L332.442 108.343H332.442V108.343Z" fill="#F2F2F2"/>
<path d="M326.297 144.92L325.962 144.588L325.968 144.116L325.962 144.588L325.496 144.539C325.498 144.495 325.495 144.392 325.492 144.232C325.474 143.354 325.418 140.681 325.789 136.574C326.049 133.708 326.482 130.798 327.078 127.924C327.674 125.046 328.293 122.905 328.79 121.183C329.165 119.885 329.544 118.654 329.913 117.454C330.9 114.25 331.831 111.223 332.408 107.77C332.537 106.999 332.805 105.395 332.257 103.501C331.938 102.403 331.393 101.369 330.635 100.43L331.368 99.8363C332.204 100.875 332.807 102.02 333.161 103.239C333.769 105.339 333.477 107.087 333.337 107.927C332.75 111.44 331.809 114.497 330.813 117.732C330.445 118.927 330.068 120.153 329.694 121.446C329.202 123.151 328.588 125.274 328 128.115C327.411 130.955 326.983 133.829 326.727 136.659C326.36 140.714 326.415 143.347 326.433 144.212C326.443 144.674 326.445 144.771 326.297 144.92V144.92V144.92Z" fill="#F2F2F2"/>
<path d="M328.624 101.516C328.587 101.508 328.549 101.498 328.511 101.487C327.737 101.27 327.117 100.638 326.667 99.6105C326.456 99.1273 326.406 98.6187 326.307 97.6043C326.291 97.4479 326.222 96.6565 326.307 95.6077C326.362 94.9224 326.436 94.6471 326.622 94.431C326.828 94.1902 327.107 94.0523 327.401 93.983C327.409 93.8923 327.439 93.8036 327.497 93.7195C327.74 93.3705 328.145 93.5139 328.365 93.5885C328.475 93.6284 328.613 93.6791 328.769 93.7053C329.013 93.7475 329.158 93.7046 329.379 93.6406C329.59 93.5792 329.852 93.5028 330.215 93.5093C330.931 93.5192 331.461 93.8415 331.635 93.9476C332.555 94.5015 332.873 95.3854 333.241 96.4087C333.314 96.6138 333.556 97.3553 333.613 98.31C333.653 98.9988 333.563 99.2808 333.46 99.4824C333.249 99.8969 332.926 100.089 332.124 100.493C331.287 100.917 330.866 101.129 330.522 101.238C329.72 101.49 329.217 101.648 328.624 101.516V101.516V101.516Z" fill="#F2F2F2"/>
<path d="M91.1726 111.871L90.5572 92.4185C90.5472 92.1028 90.6711 91.7953 90.8971 91.5751C91.1232 91.3547 91.4335 91.2392 91.7485 91.2581L107.153 92.1839C107.465 92.2025 107.757 92.3516 107.955 92.5929C108.153 92.8341 108.242 93.1499 108.2 93.4593L105.594 112.794C105.516 113.379 104.994 113.806 104.406 113.767L92.2223 112.96C92.0987 112.952 91.981 112.924 91.872 112.88C91.4696 112.717 91.1871 112.329 91.1726 111.871V111.871Z" fill="#E55934"/>
<path d="M90.5763 90.5988C90.7918 90.576 91.0805 90.5481 91.4271 90.5189C91.3344 90.346 91.2965 90.1416 91.3361 89.9317L91.6112 88.4746C91.6826 88.0965 91.9867 87.8066 92.3674 87.7556C94.6356 87.4516 102.437 86.6271 107.35 88.8604C107.657 89.0001 107.855 89.3069 107.865 89.6449L107.91 91.1994C107.915 91.3916 107.86 91.5698 107.762 91.7175C108.17 91.8275 108.577 91.9439 108.981 92.0708C109.234 92.1503 109.415 92.3741 109.446 92.638L109.522 93.3002C109.57 93.7203 109.227 94.0816 108.806 94.0531L90.3887 92.8068C89.9696 92.7784 89.6777 92.3776 89.7786 91.969L89.9908 91.1094C90.0591 90.8325 90.2931 90.6287 90.5763 90.5988V90.5988Z" fill="#3F3D56"/>
<path d="M44.8118 56.6713L44.1964 37.2187C44.1864 36.9029 44.3102 36.5955 44.5363 36.3753C44.7624 36.1549 45.0727 36.0394 45.3876 36.0583L60.7926 36.9841C61.1038 37.0026 61.3958 37.1518 61.5937 37.3931C61.7918 37.6343 61.8814 37.9501 61.8397 38.2595L59.2336 57.5939C59.1548 58.1789 58.6327 58.6064 58.045 58.5673L45.8615 57.76C45.7379 57.7518 45.6202 57.7242 45.5112 57.68C45.1088 57.5169 44.8263 57.1294 44.8118 56.6714V56.6713Z" fill="#E55934"/>
<path d="M44.2154 35.399C44.431 35.3762 44.7197 35.3482 45.0662 35.3191C44.9736 35.1462 44.9357 34.9417 44.9753 34.7319L45.2504 33.2748C45.3218 32.8966 45.6258 32.6067 46.0066 32.5557C48.2748 32.2518 56.0765 31.4272 60.9891 33.6605C61.2964 33.8003 61.4942 34.1071 61.504 34.4451L61.5489 35.9996C61.5544 36.1918 61.4987 36.37 61.401 36.5176C61.8094 36.6277 62.2165 36.744 62.6203 36.8709C62.8734 36.9504 63.0545 37.1742 63.0849 37.4382L63.1612 38.1003C63.2096 38.5205 62.8659 38.8817 62.4448 38.8532L44.0279 37.6069C43.6088 37.5786 43.3169 37.1778 43.4177 36.7692L43.6299 35.9096C43.6983 35.6327 43.9323 35.4288 44.2154 35.399V35.399Z" fill="#3F3D56"/>
<path d="M286.433 116.79L285.818 97.3373C285.808 97.0216 285.932 96.7142 286.158 96.4939C286.384 96.2736 286.694 96.158 287.009 96.1769L302.414 97.1027C302.725 97.1213 303.017 97.2704 303.215 97.5117C303.413 97.7529 303.503 98.0687 303.461 98.3782L300.855 117.713C300.776 118.298 300.254 118.725 299.667 118.686L287.483 117.879C287.359 117.87 287.242 117.843 287.133 117.799C286.73 117.636 286.448 117.248 286.433 116.79V116.79Z" fill="#E55934"/>
<path d="M285.837 95.5176C286.053 95.4949 286.341 95.4669 286.688 95.4377C286.595 95.2648 286.557 95.0604 286.597 94.8506L286.872 93.3935C286.943 93.0153 287.247 92.7254 287.628 92.6744C289.896 92.3705 297.698 91.5459 302.611 93.7792C302.918 93.9189 303.116 94.2257 303.126 94.5638L303.17 96.1183C303.176 96.3105 303.12 96.4886 303.023 96.6363C303.431 96.7463 303.838 96.8627 304.242 96.9896C304.495 97.0691 304.676 97.2929 304.706 97.5569L304.783 98.219C304.831 98.6392 304.487 99.0004 304.066 98.9719L285.649 97.7256C285.23 97.6972 284.938 97.2965 285.039 96.8879L285.252 96.0282C285.32 95.7513 285.554 95.5475 285.837 95.5176V95.5176Z" fill="#3F3D56"/>
</svg>
