<svg width="135" height="115" viewBox="0 0 135 115" fill="none" xmlns="http://www.w3.org/2000/svg">
<path d="M130.141 94.1009H4.85916C2.17987 94.1009 0 91.9086 0 89.2138V74.0486H135V89.2138C135 91.9086 132.82 94.1009 130.141 94.1009Z" fill="#E6E6E6"/>
<path d="M83.7144 91.5642H51.766V114.516H83.7144V91.5642Z" fill="#E6E6E6"/>
<path d="M85.6361 111.616H49.8443V114.516H85.6361V111.616Z" fill="#E6E6E6"/>
<path d="M134.88 80.4508H0V3.35377C0 1.50454 1.49594 0 3.3346 0H131.545C133.384 0 134.88 1.50454 134.88 3.35377V80.4508Z" fill="#3F3D56"/>
<path d="M131.637 3.50305H3.1228V76.2229H131.637V3.50305Z" fill="white"/>
<path d="M28.0111 46.846C28.9947 46.0286 30.2114 45.8765 30.7285 46.5061C31.2456 47.1358 30.8674 48.3086 29.8833 49.1262C29.4947 49.4583 29.0326 49.6918 28.5358 49.8074L24.3247 53.218L22.7755 51.1963L27.0914 48.0488C27.2981 47.5797 27.6134 47.1673 28.0111 46.846H28.0111Z" fill="#FFB6B6"/>
<path d="M3.67123 54.5412C3.6691 54.3903 3.6705 53.0747 4.63895 52.2431C5.75144 51.2879 7.32121 51.6745 7.87179 51.8101C9.14365 52.1234 9.24796 52.6721 10.4424 53.2359C12.677 54.2908 9.8771 53.7509 11.2068 53.4126C11.667 53.2955 18.2884 52.8337 19.9366 51.8134C23.1422 49.8291 25.3263 48.6259 25.3263 48.6259L26.7541 51.4979C26.7541 51.4979 24.6895 54.3852 21.7837 56.5242C18.803 58.7183 17.3127 59.8154 15.0478 60.2392C14.8527 60.2757 10.0558 61.0995 6.19231 58.1964C5.31105 57.5343 3.69639 56.321 3.67123 54.5412Z" fill="#FA7921"/>
<path d="M8.10041 47.2369C10.8474 47.2369 13.0744 44.9972 13.0744 42.2343C13.0744 39.4715 10.8474 37.2318 8.10041 37.2318C5.35338 37.2318 3.12646 39.4715 3.12646 42.2343C3.12646 44.9972 5.35338 47.2369 8.10041 47.2369Z" fill="#FFB6B6"/>
<path d="M47.0545 75.8434L41.932 70.5698L39.2877 73.344L43.1042 78.4004L46.8897 78.8358L47.0545 75.8434Z" fill="#FFB6B6"/>
<path d="M17.8049 65.9542C18.1045 65.9792 19.0566 66.1711 19.9667 65.6675C20.5878 65.3238 20.9063 64.8128 21.0139 64.6503C22.3486 62.6343 27.4714 59.4904 32.069 59.297C33.1101 59.2531 33.7954 59.3745 34.4183 59.701C35.3016 60.1641 35.6542 60.8274 36.775 62.3812C37.3881 63.2312 38.0665 64.0319 38.687 64.8764C42.3196 69.8206 43.6968 70.2088 43.556 71.7938C43.3999 73.5525 41.514 75.221 40.2606 75.0284C39.7473 74.9495 39.5485 74.5906 38.8627 73.8638C36.8518 71.733 36.0199 72.1267 34.5882 70.4946C32.9167 68.5891 33.1355 67.0092 32.2635 66.9482C31.4548 66.8916 31.1111 68.2394 29.3846 70.0299C28.5946 70.8492 28.0321 71.225 26.3182 72.4209C19.6439 77.0777 19.5374 77.405 18.1905 77.7764C17.6012 77.9389 13.4185 79.0922 11.9285 77.2568C9.5969 74.3847 15.1052 65.7286 17.8049 65.9542V65.9542Z" fill="#2F2E41"/>
<path d="M45.4884 77.0351C45.8651 76.865 46.3056 76.666 46.4474 76.2086C46.5433 75.899 46.488 75.5173 46.2898 75.2536C46.0611 74.9492 45.7226 74.9091 45.7363 74.8553C45.7571 74.7733 46.5576 74.8054 47.4364 75.1178C47.6022 75.1767 48.3535 75.4528 49.3091 76.2031C50.0747 76.8043 49.9717 76.9248 50.4518 77.2715C51.9256 78.3355 53.3078 77.4969 54.1053 78.4947C54.4131 78.8799 54.5443 79.4266 54.4148 79.8687C54.1547 80.7566 52.8898 81.0621 52.1985 81.2199C50.5336 81.5998 49.2734 81.2896 47.9576 81.0666C43.4826 80.3082 40.9682 80.999 40.6317 79.9563C40.568 79.7589 40.6715 79.7757 41.0165 78.3275C41.3571 76.8982 41.3459 76.5057 41.6359 76.3912C42.0725 76.2189 42.3657 77.0026 43.4655 77.2709C44.4401 77.5085 45.2443 77.1454 45.4884 77.0351H45.4884Z" fill="#2F2E41"/>
<path d="M37.9476 93.0954L36.6533 85.8387L32.9165 86.6408L33.2512 92.9802L36.1405 95.4784L37.9476 93.0954Z" fill="#FFB6B6"/>
<path d="M19.2664 68.3934C19.5003 68.5833 20.181 69.2798 21.2152 69.3771C21.921 69.4435 22.4699 69.2005 22.6496 69.1268C24.8796 68.2124 30.8738 68.5042 34.7861 70.9407C35.6721 71.4925 36.1714 71.9799 36.5045 72.6019C36.9768 73.4839 36.8982 74.2319 36.9581 76.1506C36.9909 77.2002 37.1051 78.2459 37.147 79.2951C37.3924 85.4378 38.3152 86.5367 37.3137 87.7688C36.2026 89.1358 33.7105 89.4513 32.7809 88.5841C32.4002 88.2289 32.4362 87.8196 32.2745 86.8309C31.8003 83.9321 30.8921 83.788 30.6187 81.629C30.2995 79.1083 31.3627 77.9246 30.6752 77.3816C30.0376 76.878 29.0007 77.7992 26.5724 78.3057C25.4613 78.5374 24.786 78.5307 22.7002 78.5523C14.5775 78.6362 14.3066 78.8468 12.9848 78.3934C12.4064 78.1951 8.30154 76.7872 8.09339 74.427C7.76765 70.7336 17.1585 66.682 19.2664 68.3934H19.2664Z" fill="#2F2E41"/>
<path d="M35.9864 93.1969C36.3931 93.2689 36.8687 93.3531 37.2414 93.0546C37.4935 92.8526 37.661 92.5056 37.6442 92.1754C37.6249 91.7944 37.3671 91.57 37.4085 91.5332C37.4716 91.4772 38.116 91.9558 38.6687 92.7106C38.773 92.853 39.2405 93.5057 39.6123 94.6663C39.9102 95.5961 39.7576 95.6377 39.9614 96.1956C40.5868 97.9084 42.1987 97.9952 42.3015 99.2712C42.3411 99.7637 42.1445 100.29 41.7904 100.583C41.0795 101.171 39.8623 100.709 39.2022 100.449C37.6124 99.8233 36.7429 98.855 35.7786 97.9273C32.4992 94.7724 30.033 93.924 30.3367 92.8711C30.3942 92.6719 30.4704 92.7442 31.5645 91.7408C32.6443 90.7504 32.8542 90.4193 33.1581 90.4884C33.6156 90.5924 33.4206 91.4065 34.1809 92.2495C34.8546 92.9966 35.7228 93.1503 35.9864 93.1969V93.1969Z" fill="#2F2E41"/>
<path d="M8.77851 43.1907C8.97215 42.4941 8.72894 42.2402 8.97683 41.9275C8.97684 41.9275 9.07659 41.8016 9.96842 41.4621C9.7053 39.9266 9.90231 39.667 9.90232 39.667C10.1294 39.3677 10.5842 39.2954 10.8939 39.3345C11.5488 39.4173 11.6648 40.0127 12.0838 39.9994C12.6627 39.9809 13.357 38.8155 13.1415 37.8053C12.9657 36.9814 12.2077 36.3694 12.0177 36.4756C11.8293 36.5809 11.1511 36.1167 10.8939 36.2097C10.7183 36.2732 9.89147 36.1887 9.704 36.2762C9.49927 36.3717 8.91296 36.9665 8.85691 36.8915C8.46737 36.3708 8.47566 36.1889 8.24967 36.0767C7.84921 35.8778 7.41383 36.2454 6.66312 36.6086C5.11852 37.3558 4.66623 36.9101 3.95278 37.5394C3.59237 37.8573 3.39911 38.4648 3.02729 39.667C2.5073 41.3481 2.24732 42.1887 2.49844 42.9913C2.75454 43.8097 3.13169 43.6316 3.68835 44.7864C4.308 46.0718 4.09443 46.819 4.67994 47.1134C5.13246 47.3409 5.8597 47.1961 6.13428 46.781C6.60438 46.0702 5.38931 45.1087 5.80375 43.9885C6.05814 43.301 6.84292 42.7796 7.32419 42.9248C7.86835 43.0889 7.90842 44.0702 8.24967 44.055C8.54189 44.042 8.74478 43.3121 8.77852 43.1907H8.77851Z" fill="#2F2E41"/>
<path d="M5.01047 47.9777C6.02832 46.8299 10.1742 48.0179 10.5634 49.8393C10.7234 50.5885 10.1326 50.9048 10.299 51.7674C10.5423 53.0291 11.9203 52.9431 12.9432 54.2274C14.3953 56.0507 12.8993 57.8331 14.5297 60.876C14.8781 61.5262 15.1718 62.0742 15.7858 62.6046C17.1947 63.8217 18.5059 63.4043 19.2233 64.5327C19.7598 65.3766 19.5393 66.4166 19.4877 66.6603C19.276 67.6593 18.7021 67.9027 18.2978 68.7213C17.6251 70.0833 18.3868 71.0832 18.43 72.7105C18.4841 74.7465 17.4083 77.5688 15.2569 78.4948C12.8399 79.5351 9.92474 77.8121 8.51409 76.1013C7.67235 75.0804 7.42801 74.1388 7.05976 72.9765C5.41397 67.7818 4.48419 68.2516 3.22561 64.1338C1.78682 59.4264 1.50397 53.9115 3.22561 52.1663C3.4538 51.935 4.0818 51.4004 4.48162 50.4377C5.01964 49.1423 4.55484 48.4915 5.01047 47.9777Z" fill="#FA7921"/>
<path d="M20.0502 74.6973C20.8393 75.7057 20.9617 76.9326 20.3235 77.4376C19.6853 77.9426 18.5285 77.5345 17.7392 76.5256C17.4184 76.1269 17.1972 75.6568 17.0941 75.1545L13.8041 70.8393L15.5041 69.5352L18.8765 73.744C19.3378 73.9629 19.7403 74.2898 20.0502 74.6973H20.0502Z" fill="#FFB6B6"/>
<path d="M8.00109 52.3522C8.14746 52.3193 9.42837 52.0522 10.4354 52.8361C11.5922 53.7365 11.5362 55.361 11.5165 55.9307C11.4711 57.2469 10.9583 57.4616 10.6532 58.7526C10.0824 61.168 11.1694 63.4127 11.77 64.6529C11.9778 65.0822 12.6457 66.3957 13.9751 67.8103C16.5606 70.5616 18.8676 72.0093 18.8676 72.0093L16.3892 74.2249C16.3892 74.2249 12.4416 73.0147 9.76665 70.5901C7.02279 68.1031 2.80321 59.3036 1.92848 57.1601C1.85314 56.9755 2.9202 59.9766 4.9576 55.5802C5.42232 54.5774 6.2738 52.7401 8.0011 52.3522H8.00109Z" fill="#FA7921"/>
<path d="M71.4311 50.288L68.472 48.8782C69.6857 50.5817 70.7315 53.2422 71.2914 55.3593C72.2393 53.3872 73.7675 50.9743 75.2801 49.533L72.1527 50.3421C74.0798 40.8433 81.3281 34.024 89.6283 34.024L89.7458 33.6809C81.076 33.6809 73.3987 40.4056 71.4311 50.288V50.288Z" fill="#3F3D56"/>
<path d="M85.0504 64.7613H66.354C65.561 64.7613 64.9158 64.1124 64.9158 63.3149C64.9158 62.5173 65.561 61.8684 66.354 61.8684H85.0504C85.8435 61.8684 86.4886 62.5173 86.4886 63.3149C86.4886 64.1124 85.8435 64.7613 85.0504 64.7613Z" fill="#FA7921"/>
<path d="M109.928 64.7613H91.232C90.439 64.7613 89.7938 64.1124 89.7938 63.3149C89.7938 62.5173 90.439 61.8684 91.232 61.8684H109.928C110.721 61.8684 111.367 62.5173 111.367 63.3149C111.367 64.1124 110.721 64.7613 109.928 64.7613Z" fill="#FDE74C"/>
<path d="M98.8604 25.4117H80.6865C80.2283 25.4117 79.8555 25.0368 79.8555 24.5759C79.8555 24.1151 80.2283 23.7404 80.6865 23.7404H98.8604C99.3185 23.7404 99.6912 24.1151 99.6912 24.5759C99.6912 25.0368 99.3185 25.4117 98.8604 25.4117V25.4117Z" fill="#3F3D56"/>
<path d="M108.613 34.3279H70.9342C70.476 34.3279 70.1032 33.9529 70.1032 33.4921C70.1032 33.0313 70.476 32.6565 70.9342 32.6565H108.613C109.071 32.6565 109.443 33.0313 109.443 33.4921C109.443 33.9529 109.071 34.3279 108.613 34.3279Z" fill="#3F3D56"/>
<path d="M8.16928 114.729C8.16928 114.879 8.28915 115 8.43843 115H126.562C126.711 115 126.831 114.879 126.831 114.729C126.831 114.579 126.711 114.459 126.562 114.459H8.43843C8.28915 114.459 8.16928 114.579 8.16928 114.729Z" fill="#3F3D56"/>
<path d="M37.1743 50.5645C37.1423 50.5645 37.1103 50.5633 37.0782 50.5613C35.1854 50.439 28.709 49.5173 24.8426 42.7938C24.524 42.2403 24.5868 41.5365 24.9987 41.0427L32.1591 32.4624C32.4519 32.1115 32.9042 31.9093 33.3623 31.9149C33.679 31.9225 34.4286 32.0029 34.5742 32.5842C35.4344 36.0181 39.0666 40.0556 43.4347 40.5908C43.8775 40.645 44.2329 41.0422 44.3855 41.6535C44.5045 42.1293 44.3945 42.6198 44.0836 42.9992L38.3476 50.0047C38.0562 50.3604 37.6286 50.5645 37.1743 50.5645V50.5645ZM33.3348 32.2601C32.9849 32.2601 32.6446 32.4177 32.4221 32.6843L25.2618 41.2646C24.9423 41.6476 24.8933 42.1926 25.1398 42.6208C28.9209 49.1961 35.2505 50.0971 37.1003 50.2166C37.478 50.2421 37.8407 50.0802 38.0825 49.7851L43.8186 42.7797C44.0595 42.4858 44.1447 42.1061 44.0525 41.7376C43.9625 41.3769 43.7419 40.9763 43.3931 40.9335C38.8806 40.3807 35.1292 36.213 34.2413 32.6685C34.1693 32.3815 33.7364 32.2693 33.3552 32.2602C33.3484 32.2601 33.3416 32.2601 33.3348 32.2601H33.3348Z" fill="#3F3D56"/>
<path d="M29.1818 43.0762L34.3441 37.7824C34.697 37.4206 34.1442 36.8636 33.7909 37.226L28.6285 42.5198C28.2757 42.8816 28.8285 43.4386 29.1818 43.0762Z" fill="#E6E6E6"/>
<path d="M32.2976 44.5676C33.7223 43.2833 34.9604 41.7962 35.9742 40.1644C36.2418 39.7337 35.5651 39.3382 35.2986 39.7672C34.3184 41.3448 33.1215 42.7696 31.7443 44.0111C31.3685 44.3499 31.9234 44.9049 32.2976 44.5676H32.2976V44.5676Z" fill="#E6E6E6"/>
<path d="M35.1058 46.3535C36.4029 44.9084 37.5071 43.2954 38.3764 41.5556C38.6019 41.1043 37.9272 40.7053 37.7008 41.1584C36.8609 42.8394 35.806 44.4005 34.5525 45.7971C34.2158 46.1722 34.7675 46.7304 35.1057 46.3535H35.1058Z" fill="#E6E6E6"/>
<path d="M32.8941 36.823C35.7685 36.823 38.0987 34.5288 38.0987 31.6987C38.0987 28.8687 35.7685 26.5745 32.8941 26.5745C30.0196 26.5745 27.6894 28.8687 27.6894 31.6987C27.6894 34.5288 30.0196 36.823 32.8941 36.823Z" fill="#FA7921"/>
<path d="M35.6022 34.1294C34.8017 32.1501 34.0013 30.1708 33.2008 28.1915C33.0903 27.9181 32.7439 27.9084 32.636 28.1915C31.8451 30.2666 31.3283 32.432 31.0799 34.6398C31.0375 35.0158 31.6236 35.0128 31.6655 34.6398C31.7628 33.7758 31.9071 32.9183 32.0924 32.07C32.752 32.1048 33.417 32.0304 34.0535 31.8531C34.3815 32.6641 34.7095 33.4751 35.0374 34.286C35.1775 34.6326 35.7443 34.481 35.6022 34.1294V34.1294ZM32.2252 31.4876C32.4225 30.6755 32.659 29.873 32.9334 29.0834L33.8311 31.3031C33.3053 31.4418 32.7676 31.5036 32.2252 31.4876V31.4876Z" fill="white"/>
</svg>
