<svg width="120" height="135" viewBox="0 0 120 135" fill="none" xmlns="http://www.w3.org/2000/svg">
<g clip-path="url(#clip0_7_307)">
<path d="M46.0078 82.6798C46.6897 83.9975 46.5615 85.417 45.7215 85.8502C44.8814 86.2834 43.6476 85.5663 42.9657 84.2485C42.6672 83.6717 42.5239 83.0754 42.5277 82.5508L39.7083 76.9308L42.3784 75.6663L44.8743 81.3407C45.305 81.6412 45.7093 82.1029 46.0078 82.6798Z" fill="#FFB6B6"/>
<path d="M25.0268 133.388L27.4307 133.388L28.5742 124.132L25.0263 124.132L25.0268 133.388Z" fill="#FFB6B6"/>
<path d="M33.2626 133.334C33.3375 133.459 33.377 133.866 33.377 134.012C33.377 134.462 33.0117 134.826 32.5611 134.826H25.1167C24.8093 134.826 24.5602 134.578 24.5602 134.271V133.961C24.5602 133.961 24.1919 133.031 24.9501 131.885C24.9501 131.885 25.8924 132.783 27.3005 131.377L27.7157 130.626L30.7215 132.821L32.3875 133.025C32.752 133.07 33.0751 133.018 33.2626 133.334V133.334Z" fill="#2F2E41"/>
<path d="M13.7495 133.388L16.1533 133.388L17.2968 124.132L13.749 124.132L13.7495 133.388Z" fill="#FFB6B6"/>
<path d="M21.9853 133.334C22.0601 133.459 22.0996 133.866 22.0996 134.012C22.0996 134.462 21.7343 134.826 21.2837 134.826H13.8394C13.532 134.826 13.2828 134.578 13.2828 134.271V133.961C13.2828 133.961 12.9145 133.031 13.6727 131.885C13.6727 131.885 14.615 132.783 16.0231 131.377L16.4384 130.626L19.4441 132.821L21.1101 133.025C21.4746 133.07 21.7978 133.018 21.9853 133.334V133.334Z" fill="#2F2E41"/>
<path d="M10.3469 78.777L9.3342 84.9547L12.4847 104.948L13.2724 129.098H17.5259L19.6859 106.296L19.4609 91.2448L24.5243 129.322H28.9444L29.3626 81.585L10.3469 78.777Z" fill="#2F2E41"/>
<path d="M15.6353 46.7649H23.5984L30.4878 50.8085C29.4155 50.5365 28.5872 60.4669 28.559 69.2414C28.5571 69.8245 27.9784 70.4948 27.9837 71.0643C27.9883 71.555 28.5761 71.947 28.5863 72.4231C28.5959 72.868 28.6079 73.3055 28.6225 73.734C28.6346 74.0897 27.968 74.5609 27.9837 74.9031C28.0038 75.3403 28.7074 75.6439 28.7335 76.0554C28.8941 78.5848 29.171 80.5887 29.5876 81.585C29.5876 81.585 11.8096 86.5272 10.4594 78.8892C10.4594 78.8892 10.5365 76.1439 10.5257 72.3528C10.5247 72.0164 10.2378 71.7113 10.2353 71.3596C10.2335 71.0982 10.5165 70.7934 10.5137 70.5246C10.5115 70.3037 10.2383 70.1084 10.2353 69.8832C10.2335 69.7489 10.5022 69.586 10.5002 69.4503C10.3922 62.2412 9.90733 53.1559 8.20901 50.8085L15.6353 46.7649V46.7649Z" fill="#5BC0EB"/>
<path d="M23.5116 46.765C23.5116 46.765 28.6716 48.6369 30.3089 50.1281C31.179 50.9205 37.0139 65.8599 37.0139 65.8599L45.1184 79.9495L40.9056 81.5469L32.2881 68.5556L28.4624 60.0191L23.5116 46.765V46.765Z" fill="#5BC0EB"/>
<path d="M12.8088 83.2129C13.5614 84.4918 13.5106 85.9161 12.6954 86.3942C11.8801 86.8723 10.6092 86.2231 9.85656 84.9443C9.52712 84.3845 9.35166 83.7968 9.32683 83.2728L6.20596 77.8139L8.80333 76.4065L11.6042 81.9373C12.0506 82.214 12.4794 82.6531 12.8088 83.2129Z" fill="#FFB6B6"/>
<path d="M14.5101 53.729L12.2597 48.5621C12.2597 48.5621 6.9713 50.247 6.9713 52.7181C6.9713 52.7181 3.82077 71.5883 4.27084 76.3059L7.19634 81.4727L11.3595 78.2153L8.77161 72.2622L14.5101 53.729Z" fill="#5BC0EB"/>
<path d="M9.88193 87.2967L12.5364 82.0343L15.6353 86.3026L12.8463 88.9983L9.88193 87.2967Z" fill="#2F2E41"/>
<path d="M19.5418 45.2807C22.3862 45.2807 24.692 42.9789 24.692 40.1395C24.692 37.3001 22.3862 34.9983 19.5418 34.9983C16.6974 34.9983 14.3916 37.3001 14.3916 40.1395C14.3916 42.9789 16.6974 45.2807 19.5418 45.2807Z" fill="#FFB6B6"/>
<path d="M23.5578 34.3963C22.6628 34.1102 22.2394 33.0474 21.4207 32.5868C20.5153 32.0773 19.4322 31.7593 18.4338 32.0475C17.8213 32.2244 17.2876 32.6153 16.6746 32.7907C16.5674 32.8213 16.4547 32.8425 16.3402 32.8534C15.6809 32.9161 15.115 33.3107 14.7855 33.8842L14.7769 33.899C14.5835 34.2294 14.3085 34.5031 14.0645 34.7983C13.1741 35.8754 12.6922 37.2752 12.7021 38.6717C12.7128 40.1728 13.2914 41.6631 14.2968 42.7793L14.5537 42.6611C15.1744 43.1963 15.7951 43.7316 16.4158 44.2668C16.078 43.05 15.7371 41.7907 15.9159 40.5408C16.0947 39.2909 16.9367 38.0439 18.1782 37.8026C18.6478 37.7113 19.1432 37.7665 19.5991 37.6216C20.055 37.4766 20.4749 37.0088 20.3185 36.5573C20.6008 37.3024 21.6537 37.2584 22.3784 37.5917C24.0005 38.3377 23.4067 37.1848 24.8148 38.2815C25.2904 35.6502 27.1122 35.5327 23.5578 34.3963L23.5578 34.3963Z" fill="#2F2E41"/>
<path d="M0 134.649C0 134.844 0.156787 135 0.352028 135H119.648C119.843 135 120 134.844 120 134.649C120 134.454 119.843 134.297 119.648 134.297H0.352028C0.156787 134.297 0 134.454 0 134.649Z" fill="#E55934"/>
<path d="M104.042 135H51.854C45.4907 135 40.3136 129.832 40.3136 123.48V11.5203C40.3136 5.16801 45.4907 0 51.854 0H104.042C110.405 0 115.582 5.16801 115.582 11.5203V123.48C115.582 129.832 110.405 135 104.042 135V135Z" fill="#3F3D56"/>
<path d="M115.582 41.1824C115.313 41.1824 115.094 41.401 115.094 41.6697V57.2654C115.094 57.5342 115.313 57.7528 115.582 57.7528C115.851 57.7528 116.07 57.5342 116.07 57.2654V41.6697C116.07 41.4009 115.851 41.1824 115.582 41.1824Z" fill="#3F3D56"/>
<path d="M114.484 11.5204V123.478C114.484 129.007 110.173 133.53 104.722 133.881H104.719C104.639 133.885 104.558 133.89 104.475 133.893C104.331 133.9 104.187 133.902 104.041 133.902C104.041 133.902 103.504 133.863 102.522 133.79C101.531 133.717 100.089 133.608 98.2895 133.464C97.7501 133.422 97.1813 133.376 96.5808 133.327C95.3846 133.23 94.0713 133.123 92.6628 133.001C92.1014 132.955 91.5204 132.903 90.9272 132.852C87.8954 132.591 84.4999 132.287 80.9188 131.941C80.3134 131.885 79.7032 131.826 79.088 131.765C78.9269 131.748 78.7633 131.734 78.5998 131.717C76.0464 131.466 41.4122 124.784 41.4122 123.478V11.5204C41.4122 5.76222 46.0869 1.0957 51.8552 1.0957H58.0897C59.0856 1.0957 59.8863 1.87061 59.9718 2.8624C59.9791 2.9282 59.9864 2.99398 59.9986 3.05978C60.1792 4.05645 61.0947 4.75094 62.1101 4.75094H93.7857C94.8012 4.75094 95.7166 4.05645 95.8973 3.05978C95.9095 2.99398 95.9168 2.9282 95.9241 2.8624C96.0096 1.87061 96.8102 1.0957 97.8062 1.0957H104.041C109.809 1.0957 114.484 5.76222 114.484 11.5204V11.5204Z" fill="white"/>
<path d="M40.0696 29.4856C39.8003 29.4856 39.5814 29.7042 39.5814 29.973V33.8719C39.5814 34.1407 39.8003 34.3592 40.0696 34.3592C40.3388 34.3592 40.5578 34.1407 40.5578 33.8719V29.973C40.5578 29.7042 40.3388 29.4856 40.0696 29.4856Z" fill="#3F3D56"/>
<path d="M40.0696 41.1824C39.8003 41.1824 39.5814 41.401 39.5814 41.6697V49.2239C39.5814 49.4927 39.8003 49.7112 40.0696 49.7112C40.3388 49.7112 40.5578 49.4927 40.5578 49.2239V41.6697C40.5578 41.4009 40.3388 41.1824 40.0696 41.1824Z" fill="#3F3D56"/>
<path d="M40.0696 51.9043C39.8003 51.9043 39.5814 52.1229 39.5814 52.3917V59.9458C39.5814 60.2146 39.8003 60.4332 40.0696 60.4332C40.3388 60.4332 40.5578 60.2146 40.5578 59.9458V52.3917C40.5578 52.1229 40.3388 51.9043 40.0696 51.9043Z" fill="#3F3D56"/>
<path d="M57.9197 2.80237H48.5831C48.5324 2.80237 48.4913 2.84338 48.4913 2.89397V3.92918C48.4913 3.97977 48.5324 4.02078 48.5831 4.02078H57.9197C57.9704 4.02078 58.0115 3.97977 58.0115 3.92918V2.89397C58.0115 2.84338 57.9704 2.80237 57.9197 2.80237Z" fill="#E6E6E6"/>
<path d="M99.3489 4.02075C99.8881 4.02075 100.325 3.58435 100.325 3.04602C100.325 2.50769 99.8881 2.07129 99.3489 2.07129C98.8096 2.07129 98.3724 2.50769 98.3724 3.04602C98.3724 3.58435 98.8096 4.02075 99.3489 4.02075Z" fill="#E6E6E6"/>
<path d="M102.034 4.02075C102.573 4.02075 103.011 3.58435 103.011 3.04602C103.011 2.50769 102.573 2.07129 102.034 2.07129C101.495 2.07129 101.058 2.50769 101.058 3.04602C101.058 3.58435 101.495 4.02075 102.034 4.02075Z" fill="#E6E6E6"/>
<path d="M104.719 4.02075C105.259 4.02075 105.696 3.58435 105.696 3.04602C105.696 2.50769 105.259 2.07129 104.719 2.07129C104.18 2.07129 103.743 2.50769 103.743 3.04602C103.743 3.58435 104.18 4.02075 104.719 4.02075Z" fill="#E6E6E6"/>
<path d="M98.6544 28.0996H57.2415C56.589 28.0996 56.0582 27.5698 56.0582 26.9185C56.0582 26.2672 56.589 25.7373 57.2415 25.7373H98.6544C99.3068 25.7373 99.8376 26.2672 99.8376 26.9185C99.8376 27.5698 99.3068 28.0996 98.6544 28.0996Z" fill="#FDE74C"/>
<path d="M105.618 121.559H90.2358C89.5834 121.559 89.0526 121.029 89.0526 120.378C89.0526 119.727 89.5834 119.197 90.2358 119.197H105.618C106.27 119.197 106.801 119.727 106.801 120.378C106.801 121.029 106.27 121.559 105.618 121.559Z" fill="#E6E6E6"/>
<path d="M64.5006 121.559H49.1187C48.4663 121.559 47.9355 121.029 47.9355 120.378C47.9355 119.727 48.4663 119.197 49.1187 119.197H64.5006C65.1531 119.197 65.6839 119.727 65.6839 120.378C65.6839 121.029 65.1531 121.559 64.5006 121.559Z" fill="#E6E6E6"/>
<path d="M106.801 31.2734H49.0948V31.5687H106.801V31.2734Z" fill="#3F3D56"/>
<path d="M98.6544 46.1123H57.2415C56.589 46.1123 56.0582 45.5824 56.0582 44.9312C56.0582 44.2799 56.589 43.75 57.2415 43.75H98.6544C99.3068 43.75 99.8376 44.2799 99.8376 44.9312C99.8376 45.5824 99.3068 46.1123 98.6544 46.1123Z" fill="#9BC53D"/>
<path d="M106.801 49.2861H49.0948V49.5814H106.801V49.2861Z" fill="#3F3D56"/>
<path d="M98.6544 64.125H57.2415C56.589 64.125 56.0582 63.5951 56.0582 62.9439C56.0582 62.2926 56.589 61.7627 57.2415 61.7627H98.6544C99.3068 61.7627 99.8376 62.2926 99.8376 62.9439C99.8376 63.5951 99.3068 64.125 98.6544 64.125Z" fill="#F0692B"/>
<path d="M106.801 67.2988H49.0948V67.5941H106.801V67.2988Z" fill="#3F3D56"/>
<path d="M106.801 82.6541H49.0948V82.9493H106.801V82.6541Z" fill="#3F3D56"/>
<path d="M106.801 98.0092H49.0948V98.3044H106.801V98.0092Z" fill="#3F3D56"/>
<path d="M78.354 108.811C87.8294 108.811 95.5108 101.143 95.5108 91.6836C95.5108 82.2247 87.8294 74.5568 78.354 74.5568C68.8786 74.5568 61.1972 82.2247 61.1972 91.6836C61.1972 101.143 68.8786 108.811 78.354 108.811Z" fill="#5BC0EB"/>
</g>
<defs>
<clipPath id="clip0_7_307">
<rect width="120" height="135" fill="white"/>
</clipPath>
</defs>
</svg>
