<svg width="239" height="101" viewBox="0 0 239 101" fill="none" xmlns="http://www.w3.org/2000/svg">
<g clip-path="url(#clip0_7_577)">
<path d="M180.096 43.4384V24.6307C180.096 22.7554 181.608 21.2299 183.466 21.2299H195.657C197.516 21.2299 199.027 22.7554 199.027 24.6307V43.4384C199.027 45.3137 197.516 46.8393 195.657 46.8393H183.466C181.608 46.8393 180.096 45.3137 180.096 43.4384Z" fill="#5BC0EB"/>
<path d="M186.339 29.3599H192.784V27.7339H186.339V29.3599Z" fill="#3F3D56"/>
<path d="M187.95 26.5143H191.173V21.2298H187.95V26.5143Z" fill="#3F3D56"/>
<path d="M187.95 46.8392H191.173V41.5548H187.95V46.8392Z" fill="#3F3D56"/>
<path d="M171.436 44.1986H152.8C150.942 44.1986 149.43 42.673 149.43 40.7977V28.494C149.43 26.6187 150.942 25.0931 152.8 25.0931H171.436C173.294 25.0931 174.806 26.6187 174.806 28.494V40.7977C174.806 42.673 173.294 44.1986 171.436 44.1986Z" fill="#5BC0EB"/>
<path d="M165.743 27.7354H159.298V29.3613H165.743V27.7354Z" fill="#3F3D56"/>
<path d="M154.666 36.2719V33.0199H149.43V36.2719H154.666Z" fill="#3F3D56"/>
<path d="M174.806 36.2719V33.0199H169.569V36.2719H174.806Z" fill="#3F3D56"/>
<path d="M20.2628 79.3682L17.1517 61.0529C15.7693 52.9145 21.7379 45.3834 29.9088 44.9564L74.2609 42.6381L84.846 25.0317C86.2493 22.6976 88.7582 21.2722 91.4635 21.2722H123.332C125.837 21.2722 127.953 23.1469 128.278 25.6536L129.088 39.7414L208.538 39.9815L218.533 73.2229L209.256 72.7664L209.732 82.8492L197.6 83.3293L193.556 71.7888C192.794 69.6158 189.457 67.1655 185.989 65.1155C178.213 60.5199 168.224 61.9949 162.34 68.882C160.951 70.5067 159.981 72.1995 159.71 73.7868L157.875 84.5296L68.9086 83.0892L57.2488 66.6288C53.804 62.8456 37.5422 61.4559 36.0777 66.6288L27.2802 79.7283L20.2628 79.3682H20.2628Z" fill="#FDE74C"/>
<path d="M116.959 31.9855L119.576 44.4386L86.2736 45.1588L93.3073 29.9182C93.9454 28.5356 95.346 27.6772 96.8559 27.7434L112.814 28.4437C114.834 28.5323 116.539 29.9892 116.959 31.9855V31.9855Z" fill="white"/>
<path d="M81.754 44.1985L88.4145 26.9138L86.6707 25.1539L75.8071 41.7979L78.0144 45.1588L81.754 44.1985Z" fill="white"/>
<path d="M177.143 100.374C185.813 100.374 192.842 93.2803 192.842 84.5297C192.842 75.7791 185.813 68.6853 177.143 68.6853C168.472 68.6853 161.443 75.7791 161.443 84.5297C161.443 93.2803 168.472 100.374 177.143 100.374Z" fill="#3F3D56"/>
<path d="M166.319 84.5297C166.319 78.5067 171.175 73.6067 177.143 73.6067C183.111 73.6067 187.966 78.5067 187.966 84.5297C187.966 90.5527 183.111 95.4527 177.143 95.4527C171.175 95.4527 166.319 90.5527 166.319 84.5297ZM166.557 84.5297C166.557 90.4202 171.306 95.2126 177.143 95.2126C182.98 95.2126 187.728 90.4202 187.728 84.5297C187.728 78.6392 182.98 73.8468 177.143 73.8468C171.306 73.8468 166.557 78.6392 166.557 84.5297Z" fill="white"/>
<path d="M167.865 84.5297C167.865 89.7005 172.019 93.8923 177.143 93.8923C182.266 93.8923 186.42 89.7005 186.42 84.5297C186.42 79.3589 182.266 75.1671 177.143 75.1671C172.019 75.1671 167.865 79.3589 167.865 84.5297ZM183.173 82.2877L181.529 83.3688L180.898 82.391L183.173 82.2877ZM180.671 87.7863L181.108 86.7059L182.487 88.5357L180.671 87.7863ZM176.462 91.4916L177.618 89.5115V91.4916H176.462ZM176.462 80.028L177.618 78.0479V80.028H176.462ZM171.323 88.5357L172.701 86.7059L173.139 87.7863L171.323 88.5357ZM170.636 82.2877L172.912 82.391L172.28 83.3688L170.636 82.2877Z" fill="#E6E6E6"/>
<path d="M45.3588 100.374C54.0296 100.374 61.0587 93.2803 61.0587 84.5297C61.0587 75.7791 54.0296 68.6853 45.3588 68.6853C36.688 68.6853 29.659 75.7791 29.659 84.5297C29.659 93.2803 36.688 100.374 45.3588 100.374Z" fill="#3F3D56"/>
<path d="M34.5354 84.5297C34.5354 78.5067 39.3908 73.6067 45.3588 73.6067C51.3269 73.6067 56.1822 78.5067 56.1822 84.5297C56.1822 90.5527 51.3269 95.4527 45.3588 95.4527C39.3908 95.4527 34.5354 90.5527 34.5354 84.5297ZM34.7733 84.5297C34.7733 90.4202 39.5219 95.2126 45.3588 95.2126C51.1958 95.2126 55.9444 90.4202 55.9444 84.5297C55.9444 78.6392 51.1958 73.8468 45.3588 73.8468C39.5219 73.8468 34.7733 78.6392 34.7733 84.5297Z" fill="white"/>
<path d="M36.0816 84.5297C36.0816 89.7005 40.2352 93.8923 45.3588 93.8923C50.4825 93.8923 54.636 89.7005 54.636 84.5297C54.636 79.3589 50.4825 75.1671 45.3588 75.1671C40.2352 75.1671 36.0816 79.3589 36.0816 84.5297ZM51.3893 82.2877L49.7456 83.3688L49.1141 82.391L51.3893 82.2877ZM48.8869 87.7863L49.3247 86.7059L50.703 88.5357L48.8869 87.7863ZM44.678 91.4916L45.8346 89.5115V91.4916H44.678ZM44.678 80.028L45.8346 78.0479V80.028H44.678ZM39.5389 88.5357L40.9173 86.7059L41.355 87.7863L39.5389 88.5357ZM38.8526 82.2877L41.1278 82.391L40.4963 83.3688L38.8526 82.2877Z" fill="#E6E6E6"/>
<path d="M110.894 50.8004H119.933V48.8799H110.894V50.8004Z" fill="#3F3D56"/>
<path d="M238.302 88.5013C238.218 88.2411 237.579 88.3556 237.518 88.1229C237.457 87.891 238.07 87.6966 238.54 87.0431C238.624 86.9252 239.158 86.1826 238.954 85.8702C238.565 85.2782 235.864 86.7528 235.216 85.9253C235.073 85.7437 235.015 85.4319 234.591 84.8517C234.422 84.6209 234.314 84.5095 234.185 84.5128C234.001 84.5174 233.936 84.749 233.647 85.1685C233.215 85.7977 233.059 85.7187 232.774 86.2342C232.563 86.6169 232.538 86.8614 232.385 86.8758C232.169 86.8962 232.08 86.4197 231.817 86.4012C231.547 86.3824 231.278 86.8532 231.145 87.221C230.894 87.9112 231.049 88.4387 231.084 88.9645C231.121 89.5359 231.033 90.3723 230.418 91.4458L224.616 100.775C225.862 98.8733 229.399 93.6871 230.824 91.7847C231.236 91.2356 231.678 90.6841 232.358 90.5804C233.014 90.4805 233.811 90.8076 234.923 90.7886C235.053 90.7863 235.415 90.7755 235.503 90.5821C235.576 90.4222 235.395 90.2831 235.461 90.1328C235.549 89.9312 235.945 90.0177 236.485 89.8838C236.866 89.7893 237.125 89.6333 237.348 89.4991C237.415 89.4587 238.414 88.8477 238.302 88.5013H238.302Z" fill="#F2F2F2"/>
<path d="M223.105 90.6796C222.954 90.6462 222.826 90.9956 222.695 90.9588C222.564 90.9221 222.647 90.5625 222.464 90.1412C222.432 90.0652 222.224 89.5864 222.013 89.5977C221.614 89.6192 221.551 91.3827 220.962 91.4651C220.832 91.4832 220.664 91.4223 220.259 91.4648C220.098 91.4818 220.013 91.5032 219.977 91.5682C219.927 91.6604 220.02 91.7597 220.141 92.0236C220.322 92.4193 220.239 92.4738 220.407 92.7636C220.533 92.9787 220.644 93.0617 220.607 93.1414C220.555 93.2541 220.298 93.1608 220.212 93.2861C220.126 93.4139 220.277 93.6831 220.417 93.8553C220.681 94.1785 220.982 94.2539 221.248 94.3886C221.536 94.5349 221.918 94.8197 222.262 95.4342L225.125 101C224.56 99.834 223.058 96.5856 222.544 95.3308C222.396 94.9686 222.255 94.5905 222.401 94.2235C222.542 93.8702 222.931 93.5697 223.243 93.0131C223.279 92.9481 223.378 92.7658 223.309 92.6665C223.253 92.5843 223.133 92.6336 223.079 92.5577C223.006 92.4559 223.162 92.2845 223.253 91.9783C223.317 91.7624 223.316 91.5892 223.315 91.4402C223.315 91.3953 223.306 90.7239 223.105 90.6795V90.6796V90.6796Z" fill="#F2F2F2"/>
<path d="M225.961 92.0375L226.051 91.199L226.107 91.1463C226.362 90.9028 226.522 90.6447 226.582 90.3791C226.591 90.3369 226.599 90.2942 226.606 90.2507C226.636 90.0783 226.673 89.864 226.837 89.6414C226.929 89.5173 227.172 89.237 227.423 89.3349C227.491 89.3605 227.537 89.4048 227.568 89.4518C227.576 89.4436 227.584 89.4355 227.593 89.4267C227.701 89.3204 227.777 89.2815 227.85 89.244C227.906 89.2152 227.964 89.1855 228.062 89.1064C228.105 89.0717 228.14 89.0405 228.169 89.0143C228.257 88.935 228.369 88.8421 228.523 88.8789C228.687 88.924 228.743 89.0813 228.78 89.1855C228.846 89.3712 228.867 89.499 228.88 89.5837C228.885 89.6147 228.891 89.6496 228.895 89.6609C228.931 89.7519 229.38 89.7754 229.549 89.7852C229.929 89.806 230.257 89.824 230.336 90.0865C230.393 90.2742 230.275 90.479 229.975 90.7113C229.882 90.7836 229.788 90.8335 229.707 90.8707C229.757 90.9185 229.797 90.9834 229.799 91.0719C229.805 91.2813 229.592 91.442 229.167 91.5503C229.061 91.5775 228.919 91.6135 228.733 91.6044C228.645 91.6 228.569 91.5865 228.503 91.5739C228.494 91.6115 228.476 91.6506 228.443 91.6877C228.349 91.797 228.196 91.8248 227.989 91.7632C227.76 91.6988 227.579 91.6112 227.419 91.5342C227.279 91.4672 227.159 91.4098 227.058 91.3941C226.871 91.3677 226.696 91.4846 226.486 91.6402L225.961 92.0375L225.961 92.0375Z" fill="#F2F2F2"/>
<path d="M227.459 87.2615L226.633 87.3863L226.568 87.3458C226.27 87.1583 225.982 87.0678 225.712 87.0767C225.669 87.0781 225.627 87.0817 225.583 87.0854C225.41 87.0999 225.195 87.1181 224.94 87.0142C224.798 86.9559 224.468 86.7897 224.498 86.52C224.505 86.4474 224.536 86.3916 224.573 86.3487C224.563 86.343 224.553 86.3371 224.543 86.3308C224.413 86.252 224.357 86.1879 224.303 86.1262C224.261 86.0787 224.218 86.0297 224.117 85.9541C224.073 85.9209 224.034 85.8952 224.002 85.8735C223.903 85.8078 223.786 85.7214 223.782 85.5616C223.784 85.3906 223.92 85.296 224.011 85.2333C224.172 85.1214 224.289 85.069 224.367 85.0343C224.395 85.0217 224.427 85.0073 224.437 85.0003C224.515 84.9423 224.424 84.498 224.39 84.3305C224.314 83.9545 224.248 83.6291 224.479 83.4854C224.645 83.3824 224.871 83.4459 225.17 83.6797C225.263 83.7526 225.334 83.8311 225.391 83.9011C225.424 83.8402 225.476 83.7848 225.56 83.7599C225.759 83.7015 225.967 83.8684 226.179 84.256C226.232 84.3523 226.303 84.4819 226.341 84.6657C226.359 84.7523 226.366 84.8306 226.37 84.8977C226.408 84.8977 226.451 84.9052 226.494 84.9273C226.623 84.9919 226.688 85.1341 226.682 85.3522C226.678 85.5921 226.64 85.791 226.607 85.9664C226.578 86.1195 226.554 86.2514 226.564 86.3539C226.586 86.5438 226.743 86.685 226.945 86.85L227.459 87.2615H227.459L227.459 87.2615Z" fill="#F2F2F2"/>
<path d="M227.571 84.7566L227.661 83.9181L227.716 83.8654C227.971 83.6219 228.131 83.3638 228.191 83.0983C228.2 83.056 228.208 83.0133 228.215 82.9698C228.245 82.7974 228.282 82.5831 228.446 82.3605C228.538 82.2364 228.782 81.9561 229.032 82.054C229.1 82.0796 229.146 82.1239 229.177 82.1709C229.185 82.1627 229.194 82.1546 229.202 82.1458C229.311 82.0396 229.386 82.0006 229.459 81.9632C229.515 81.9343 229.573 81.9046 229.671 81.8255C229.714 81.7908 229.749 81.7596 229.778 81.7334C229.866 81.6541 229.978 81.5612 230.133 81.598C230.296 81.6431 230.352 81.8004 230.389 81.9046C230.456 82.0904 230.476 82.2181 230.49 82.3029C230.494 82.3338 230.5 82.3687 230.504 82.38C230.54 82.471 230.989 82.4945 231.158 82.5044C231.538 82.5252 231.867 82.5431 231.946 82.8056C232.002 82.9933 231.884 83.1981 231.584 83.4304C231.491 83.5027 231.397 83.5526 231.316 83.5898C231.366 83.6376 231.406 83.7025 231.408 83.791C231.414 84.0004 231.201 84.1611 230.776 84.2694C230.67 84.2966 230.528 84.3326 230.342 84.3235C230.255 84.3192 230.178 84.3056 230.112 84.293C230.103 84.3306 230.085 84.3697 230.053 84.4068C229.958 84.5161 229.805 84.5439 229.598 84.4823C229.369 84.4179 229.188 84.3303 229.028 84.2533C228.889 84.1863 228.768 84.1289 228.667 84.1133C228.48 84.0868 228.305 84.2037 228.095 84.3593L227.571 84.7567L227.571 84.7566Z" fill="#F2F2F2"/>
<path d="M224.89 100.823L224.744 100.677L224.747 100.47L224.744 100.677L224.541 100.656C224.542 100.636 224.541 100.591 224.539 100.521C224.532 100.135 224.507 98.9612 224.669 97.1573C224.782 95.8981 224.971 94.62 225.231 93.3577C225.491 92.0935 225.761 91.1528 225.978 90.3967C226.141 89.8265 226.307 89.2856 226.468 88.7588C226.898 87.3512 227.304 86.0216 227.556 84.5049C227.612 84.1664 227.729 83.4617 227.49 82.6299C227.351 82.1474 227.113 81.6933 226.783 81.2806L227.102 81.02C227.467 81.4761 227.73 81.979 227.884 82.5146C228.15 83.4369 228.022 84.2048 227.961 84.5737C227.705 86.1171 227.295 87.4596 226.86 88.8807C226.7 89.4056 226.535 89.9441 226.372 90.512C226.157 91.2611 225.89 92.1936 225.633 93.4416C225.376 94.6888 225.19 95.9513 225.078 97.1946C224.918 98.9757 224.942 100.132 224.95 100.512C224.954 100.715 224.955 100.758 224.89 100.823V100.823Z" fill="#F2F2F2"/>
<path d="M225.906 81.7578C225.889 81.7541 225.873 81.75 225.856 81.745C225.519 81.6496 225.248 81.3723 225.052 80.9208C224.96 80.7086 224.938 80.4851 224.895 80.0396C224.888 79.9709 224.858 79.6233 224.895 79.1626C224.919 78.8615 224.951 78.7406 225.032 78.6457C225.122 78.5399 225.244 78.4793 225.372 78.4489C225.376 78.4091 225.389 78.3701 225.414 78.3332C225.52 78.1799 225.696 78.2429 225.792 78.2757C225.841 78.2932 225.901 78.3154 225.969 78.3269C226.075 78.3455 226.139 78.3266 226.235 78.2985C226.327 78.2715 226.441 78.238 226.599 78.2409C226.912 78.2452 227.143 78.3868 227.219 78.4334C227.62 78.6767 227.759 79.0649 227.919 79.5144C227.951 79.6045 228.057 79.9302 228.081 80.3496C228.099 80.6521 228.06 80.776 228.015 80.8645C227.923 81.0466 227.782 81.131 227.432 81.3086C227.067 81.4946 226.883 81.5877 226.733 81.6356C226.384 81.7464 226.164 81.816 225.906 81.7578V81.7578V81.7578Z" fill="#F2F2F2"/>
<path d="M0 100.463C0 100.621 0.220103 100.749 0.494191 100.749H236.413C236.687 100.749 236.908 100.621 236.908 100.463C236.908 100.304 236.687 100.177 236.413 100.177H0.494191C0.220103 100.177 0 100.304 0 100.463Z" fill="#CCCCCC"/>
<path d="M119.876 98.6591L123.179 98.6588L124.75 85.8019L119.875 85.8022L119.876 98.6591Z" fill="#FFB6B6"/>
<path d="M131.192 98.5835C131.294 98.7583 131.349 99.3224 131.349 99.5257C131.349 100.15 130.847 100.657 130.228 100.657L119.999 100.657C119.577 100.657 119.235 100.311 119.235 99.8852V99.4554C119.235 99.4554 118.729 98.1638 119.77 96.5717C119.77 96.5717 121.065 97.8183 123 95.8658L123.57 94.8228L127.7 97.8709L129.989 98.1553C130.49 98.2175 130.934 98.1456 131.192 98.5835H131.192L131.192 98.5835Z" fill="#2F2E41"/>
<path d="M105.036 98.6591L108.339 98.6588L109.91 85.8019L105.036 85.8022L105.036 98.6591Z" fill="#FFB6B6"/>
<path d="M116.352 98.5835C116.455 98.7583 116.509 99.3224 116.509 99.5257C116.509 100.15 116.008 100.657 115.388 100.657L105.16 100.657C104.738 100.657 104.395 100.311 104.395 99.8852V99.4554C104.395 99.4554 103.889 98.1638 104.931 96.5717C104.931 96.5717 106.226 97.8183 108.16 95.8658L108.731 94.8228L112.861 97.8709L115.15 98.1553C115.651 98.2175 116.095 98.1456 116.352 98.5835H116.352L116.352 98.5835Z" fill="#2F2E41"/>
<path d="M119.353 10.8691L119.98 16.7751L112.664 16.1424L113.918 10.6582L119.353 10.8691Z" fill="#FFB6B6"/>
<path opacity="0.1" d="M119.353 10.8691L119.98 16.7751L112.664 16.1424L113.918 10.6582L119.353 10.8691Z" fill="black"/>
<path d="M116.74 11.6074C119.395 11.6074 121.547 9.43536 121.547 6.75602C121.547 4.07669 119.395 1.90466 116.74 1.90466C114.085 1.90466 111.933 4.07669 111.933 6.75602C111.933 9.43536 114.085 11.6074 116.74 11.6074Z" fill="#FFB6B6"/>
<path d="M119.875 14.3495L127.922 19.0954L125.285 31.962L127.086 49.2582L125.832 91.6548L118.099 90.8111L117.054 54.7423L110.992 92.0767H103.483L104.722 51.7893L108.484 34.7041L106.185 16.1424L113.187 13.9276L119.875 14.3495Z" fill="#2F2E41"/>
<path d="M120.189 8.12704C120.189 8.12704 120.607 6.65054 121.547 6.75601C122.488 6.86147 122.697 6.01776 122.488 5.5959C122.279 5.17405 121.861 3.06476 121.861 3.06476C121.861 3.06476 122.07 1.58825 120.816 1.37733C119.562 1.1664 119.144 0.955468 118.935 0.533612C118.726 0.111754 115.591 -0.310102 114.546 0.322683C113.5 0.955468 112.664 2.16955 111.933 2.51169C111.201 2.85383 110.574 3.48661 110.992 4.54126C111.41 5.5959 112.017 7.65856 112.017 7.65856C112.017 7.65856 113.082 7.28333 113.291 7.91612C113.5 8.5489 112.664 7.70519 113.709 6.01776C114.755 4.33033 114.755 2.6429 116.427 3.27569C118.099 3.90847 119.98 3.69755 119.771 4.96312C119.562 6.22869 120.189 8.12705 120.189 8.12705L120.189 8.12704Z" fill="#2F2E41"/>
<path d="M123.772 45.4743C122.766 46.5493 122.5 47.9446 123.178 48.5906C123.856 49.2366 125.221 48.8887 126.228 47.8132C126.635 47.3892 126.937 46.8727 127.106 46.3071L131.312 41.6979L129.126 39.7523L125.212 44.5027C124.662 44.7059 124.169 45.039 123.772 45.4743Z" fill="#FFB6B6"/>
<path d="M127.837 18.9899L134.919 31.1668L135.969 36.7258L129.149 45.4614L126.263 41.7554L129.673 36.7258L124.165 26.9313L127.837 18.9899Z" fill="#2F2E41"/>
<path d="M107.925 44.3405V29.9832C107.925 27.7949 109.689 26.0148 111.857 26.0148H133.604C135.772 26.0148 137.536 27.7949 137.536 29.9832V44.3405C137.536 46.5287 135.772 48.3089 133.604 48.3089H111.857C109.689 48.3089 107.925 46.5287 107.925 44.3405Z" fill="#5BC0EB"/>
<path d="M118.5 35.0765H126.021V33.1792H118.5V35.0765Z" fill="#3F3D56"/>
<path d="M125.404 48.1817V44.387H119.294V48.1817H125.404Z" fill="#3F3D56"/>
<path d="M125.691 29.9367V26.142H119.581V29.9367H125.691Z" fill="#3F3D56"/>
<path d="M110.126 42.7323C111.132 43.8073 111.398 45.2025 110.72 45.8485C110.042 46.4945 108.677 46.1467 107.671 45.0712C107.263 44.6471 106.961 44.1306 106.792 43.565L102.586 38.9559L104.772 37.0103L108.686 41.7606C109.236 41.9638 109.73 42.297 110.126 42.7323Z" fill="#FFB6B6"/>
<path d="M106.061 16.2478L98.9788 28.4247L97.9296 33.9837L104.749 42.7194L107.635 39.0133L104.225 33.9837L109.733 24.1893L106.061 16.2478Z" fill="#2F2E41"/>
<path d="M17.9991 74.3109C21.5463 74.3109 24.4218 71.7851 24.4218 68.6694C24.4218 65.5536 21.5463 63.0278 17.9991 63.0278C14.452 63.0278 11.5764 65.5536 11.5764 68.6694C11.5764 71.7851 14.452 74.3109 17.9991 74.3109Z" fill="#E6E6E6"/>
</g>
<defs>
<clipPath id="clip0_7_577">
<rect width="239" height="101" fill="white"/>
</clipPath>
</defs>
</svg>
