<svg width="95" height="95" viewBox="0 0 95 95" fill="none" xmlns="http://www.w3.org/2000/svg">
<path d="M43.9969 1.67438C37.9644 2.17313 32.5019 3.6575 27.2531 6.24625C14.0244 12.7419 4.72624 25.1513 2.20874 39.6625C1.74562 42.3344 1.61499 44.1038 1.61499 47.5C1.61499 50.8963 1.74562 52.6656 2.20874 55.3375C4.20374 66.8563 10.5212 77.1875 19.8906 84.2413C25.0087 88.1006 31.1125 90.9388 37.2875 92.3163C41.0162 93.1475 43.3319 93.385 47.5 93.385C50.8962 93.385 52.6656 93.2544 55.3375 92.7913C66.8562 90.7963 77.1875 84.4788 84.2413 75.1094C88.1006 69.9913 90.9388 63.8875 92.3163 57.7125C93.1475 53.9838 93.385 51.6681 93.385 47.5C93.385 44.1038 93.2544 42.3344 92.7913 39.6625C91.39 31.5756 87.9463 24.2013 82.5431 17.7531C81.4031 16.3756 78.6244 13.5969 77.2469 12.4569C70.0625 6.43625 61.9994 2.95688 52.6656 1.82875C50.8131 1.615 45.8256 1.52 43.9969 1.67438ZM52.725 5.40313C60.6575 6.48375 67.2956 9.2625 73.6488 14.1313C75.5725 15.6156 79.3844 19.4275 80.8688 21.3513C85.7613 27.7163 88.5163 34.3306 89.6088 42.3344C89.9175 44.5313 89.9175 50.4688 89.6088 52.6656C88.5163 60.6694 85.7375 67.3075 80.8688 73.6488C79.705 75.145 76.0831 78.9094 74.6938 80.0375L73.9219 80.6669L73.8506 79.515C73.8031 78.8856 73.7438 78.3394 73.7081 78.3038C73.6725 78.2681 73.5181 78.3275 73.3519 78.4225C72.865 78.755 71.2025 79.3013 70.11 79.515C68.78 79.7644 66.8444 79.6813 65.4906 79.325C61.6194 78.2919 58.6387 75.2994 57.57 71.3569C57.3444 70.5138 57.2969 70.0863 57.3087 68.5781C57.3206 67.0106 57.3562 66.6781 57.6294 65.7756C57.7956 65.2056 58.0806 64.4456 58.2469 64.0656C59.0069 62.3438 60.6337 60.4675 62.2725 59.4344C62.7712 59.1138 63.1394 58.8169 63.0919 58.7694C62.8425 58.5319 59.1969 57.57 56.5962 57.0594L55.1831 56.7744L54.53 57.3563C53.2119 58.5319 51.0744 59.3869 48.8062 59.6363C45.7425 59.9688 42.37 59.0544 40.47 57.3563L39.805 56.7744L37.7625 57.19C34.1169 57.9263 30.5781 59.0781 28.7375 60.1113C27.4075 60.8594 26.3387 61.6906 25.3769 62.7C23.4175 64.7663 22.3487 67.355 21.7431 71.5231C21.5294 73.0075 21.4106 74.4444 21.1612 79.135L21.0781 80.6669L20.3062 80.0375C18.9169 78.9094 15.295 75.145 14.1312 73.6488C9.26249 67.3075 6.48374 60.6694 5.39124 52.6656C5.08249 50.4688 5.08249 44.5313 5.39124 42.3344C6.48374 34.3306 9.23874 27.7163 14.1312 21.3513C15.6156 19.4275 19.4275 15.6156 21.3512 14.1313C28.2744 8.82313 35.6725 5.94938 44.4125 5.1775C45.6831 5.07063 51.4187 5.21313 52.725 5.40313Z" fill="#BD2024"/>
<path d="M44.4362 21.755C39.0687 22.42 35.6487 25.4125 34.3306 30.5781C33.4637 33.9863 33.2975 39.5081 33.9625 42.7263C35.0431 47.9275 38.1781 52.25 42.3225 54.2688C44.2462 55.2069 45.0418 55.385 47.5 55.385C49.9581 55.385 50.7537 55.2069 52.6775 54.2688C56.8218 52.25 59.9568 47.9275 61.0375 42.7263C61.7025 39.5081 61.5362 33.9863 60.6693 30.5781C59.3275 25.3413 55.9431 22.42 50.4093 21.7431C49.1625 21.5888 45.6831 21.6006 44.4362 21.755Z" fill="#BD2024"/>
<path d="M66.9512 59.7431C64.6712 60.0519 62.3081 61.4769 60.99 63.3294C59.8856 64.8969 59.3987 66.2863 59.2918 68.1625C59.1968 69.9081 59.4343 71.06 60.23 72.675C60.7643 73.7556 60.9781 74.0644 61.9281 75.0025C62.8781 75.9644 63.1512 76.1663 64.2437 76.6888C65.8587 77.4606 66.4762 77.6031 68.2812 77.6031C70.015 77.6031 70.8462 77.4131 72.2593 76.7244C74.5631 75.5844 76.2612 73.5063 76.9618 70.9531C77.3181 69.6706 77.3181 67.6756 76.9737 66.3694C75.81 61.9756 71.4756 59.1138 66.9512 59.7431ZM73.3637 65.1106C73.6368 65.3363 73.7556 65.7756 73.6131 66.0488C73.5062 66.2506 67.83 73.2569 67.3906 73.72C67.2718 73.8506 66.9868 73.5894 65.8943 72.3544C64.0418 70.2881 63.8875 70.0863 63.8875 69.7894C63.8875 69.3619 64.3506 68.9938 64.8731 68.9938C65.3481 68.9938 65.6568 69.255 66.88 70.7038L67.165 71.0481L69.5993 68.0913C70.9412 66.4644 72.1643 65.0631 72.3306 64.98C72.6275 64.8256 73.1025 64.885 73.3637 65.1106Z" fill="#BD2024"/>
</svg>
